<?xml version="1.0" encoding="utf-8"?>
<!-- Generator: Adobe Illustrator 19.0.0, SVG Export Plug-In . SVG Version: 6.00 Build 0)  -->
<svg version="1.1" id="Layer_1" xmlns="http://www.w3.org/2000/svg" xmlns:xlink="http://www.w3.org/1999/xlink" x="0px" y="0px"
	 viewBox="0 0 175 175" style="enable-background:new 0 0 175 175;" xml:space="preserve">
<style type="text/css">
	.st0{fill:none;stroke:#FF9800;stroke-miterlimit:10;}
	.st1{fill:#F09333;}
</style>
<circle id="XMLID_1732_" class="st0" cx="87.5" cy="87.5" r="74.9"/>
<g id="XMLID_990_">
	<path id="XMLID_998_" class="st1" d="M90.4,80.2C90.4,80.2,90.4,80.2,90.4,80.2L90.4,80.2L57.6,113l4.5,4.5l42.7-42.7l-4.5-4.5
		L90.4,80.2z M62.1,114.5l-1.5-1.5l30.5-30.5l1.5,1.5L62.1,114.5z M94.1,82.5L92.6,81l7.7-7.7l1.5,1.5L94.1,82.5z"/>
	<path id="XMLID_997_" class="st1" d="M100.4,67.1c0.6,0,1.1-0.5,1.1-1.1v-7.4c0-0.6-0.5-1.1-1.1-1.1c-0.6,0-1.1,0.5-1.1,1.1V66
		C99.4,66.6,99.8,67.1,100.4,67.1z"/>
	<path id="XMLID_996_" class="st1" d="M100.4,81.9c-0.6,0-1.1,0.5-1.1,1.1v7.4c0,0.6,0.5,1.1,1.1,1.1c0.6,0,1.1-0.5,1.1-1.1v-7.4
		C101.5,82.4,101,81.9,100.4,81.9z"/>
	<path id="XMLID_995_" class="st1" d="M116.3,73.4h-7.4c-0.6,0-1.1,0.5-1.1,1.1s0.5,1.1,1.1,1.1h7.4c0.6,0,1.1-0.5,1.1-1.1
		S116.9,73.4,116.3,73.4z"/>
	<path id="XMLID_994_" class="st1" d="M84.5,75.5H92c0.6,0,1.1-0.5,1.1-1.1s-0.5-1.1-1.1-1.1h-7.4c-0.6,0-1.1,0.5-1.1,1.1
		S84,75.5,84.5,75.5z"/>
	<path id="XMLID_993_" class="st1" d="M106.8,69.2c0.3,0,0.5-0.1,0.7-0.3l5.2-5.2c0.4-0.4,0.4-1.1,0-1.5c-0.4-0.4-1.1-0.4-1.5,0
		l-5.2,5.2c-0.4,0.4-0.4,1.1,0,1.5C106.2,69.1,106.5,69.2,106.8,69.2z"/>
	<path id="XMLID_992_" class="st1" d="M107.5,80.1c-0.4-0.4-1.1-0.4-1.5,0c-0.4,0.4-0.4,1.1,0,1.5l5.2,5.2c0.2,0.2,0.5,0.3,0.7,0.3
		c0.3,0,0.5-0.1,0.7-0.3c0.4-0.4,0.4-1.1,0-1.5L107.5,80.1z"/>
	<path id="XMLID_991_" class="st1" d="M93.3,68.9c0.2,0.2,0.5,0.3,0.7,0.3c0.3,0,0.5-0.1,0.7-0.3c0.4-0.4,0.4-1.1,0-1.5l-5.2-5.2
		c-0.4-0.4-1.1-0.4-1.5,0s-0.4,1.1,0,1.5L93.3,68.9z"/>
</g>
</svg>
