<?xml version="1.0" encoding="utf-8"?>
<!-- Generator: Adobe Illustrator 19.0.0, SVG Export Plug-In . SVG Version: 6.00 Build 0)  -->
<svg version="1.1" id="Layer_1" xmlns="http://www.w3.org/2000/svg" xmlns:xlink="http://www.w3.org/1999/xlink" x="0px" y="0px"
	 viewBox="0 0 175 175" style="enable-background:new 0 0 175 175;" xml:space="preserve">
<style type="text/css">
	.st0{fill:none;stroke:#FF9800;stroke-miterlimit:10;}
	.st1{fill:#F09333;}
</style>
<circle id="XMLID_1732_" class="st0" cx="87.5" cy="87.5" r="74.9"/>
<g id="XMLID_925_">
	<g id="XMLID_993_">
		<g id="XMLID_994_">
			<path id="XMLID_995_" class="st1" d="M91.5,108.1L78.8,88.4V72.5c0-0.7-0.6-1.2-1.2-1.2h-6.2c-0.7,0-1.2,0.6-1.2,1.2v15.9
				l-11.6,19.8c-0.6,0.9-0.9,2-0.9,3.1c0,3.4,2.8,6.2,6.2,6.2h22.7c1.2,0,2.3-0.3,3.3-1C92.5,114.7,93.3,110.9,91.5,108.1z
				 M86.4,115H63.7c-0.7,0-1.3-0.2-1.9-0.5c-1.7-1-2.3-3.3-1.3-5l11.8-20.1c0.1-0.2,0.2-0.4,0.2-0.6v-15h3.7v15
				c0,0.2,0.1,0.5,0.2,0.7l13,20c0.4,0.6,0.6,1.3,0.6,1.9C90,113.4,88.4,115,86.4,115z"/>
		</g>
	</g>
	<g id="XMLID_990_">
		<g id="XMLID_991_">
			<path id="XMLID_992_" class="st1" d="M75.5,93.8l-2.2-1.3l-10.6,18c-0.1,0.2-0.2,0.4-0.2,0.6c0,0.7,0.6,1.2,1.3,1.2h8.7V110H66
				L75.5,93.8z"/>
		</g>
	</g>
	<g id="XMLID_985_">
		<g id="XMLID_986_">
			<path id="XMLID_987_" class="st1" d="M114.5,86.3H95c-2.8,0-5,2.2-5,5v20c0,3.4,2.8,6.2,6.2,6.2h11.2c3.4,0,6.2-2.8,6.2-6.2v-17
				l2.9-2.9c0.6-0.6,0.9-1.3,0.9-2.1C117.5,87.6,116.1,86.3,114.5,86.3z M114.8,89.6l-3.2,3.2c-0.2,0.2-0.4,0.6-0.4,0.9v17.5
				c0,2.1-1.7,3.7-3.7,3.7H96.2c-2.1,0-3.7-1.7-3.7-3.7v-20c0-1.4,1.1-2.5,2.5-2.5h19.5c0.1,0,0.3,0.1,0.4,0.2
				C115,89.1,115,89.4,114.8,89.6z"/>
		</g>
	</g>
	<g id="XMLID_982_">
		<g id="XMLID_983_">
			<path id="XMLID_984_" class="st1" d="M106.2,93.7V110h-3.7v2.5h5c0.7,0,1.2-0.6,1.2-1.2V93.7H106.2z"/>
		</g>
	</g>
	<g id="XMLID_979_">
		<g id="XMLID_980_">
			<path id="XMLID_981_" class="st1" d="M92.5,75.6V58.8c0-0.7-0.6-1.2-1.2-1.2h-8.7c-0.7,0-1.2,0.6-1.2,1.2V76
				c-1.5,0.5-3,1.1-4.4,1.9l1.2,2.2c1.5-0.8,3-1.5,4.7-1.9c0.6-0.1,0.9-0.6,0.9-1.2V60H90v16.6c0,0.6,0.4,1.1,1,1.2
				c4.4,0.8,8.3,3.2,11.1,6.7l1.9-1.6C101.1,79.3,97.1,76.7,92.5,75.6z"/>
		</g>
	</g>
	<g id="XMLID_974_">
		<g id="XMLID_975_">
			<path id="XMLID_976_" class="st1" d="M110.6,75c-2.4,0-4.4,2-4.4,4.4c0,2.4,2,4.4,4.4,4.4c2.4,0,4.4-2,4.4-4.4
				C115,77,113,75,110.6,75z M110.6,81.3c-1,0-1.9-0.8-1.9-1.9c0-1,0.8-1.9,1.9-1.9c1,0,1.9,0.8,1.9,1.9
				C112.5,80.4,111.6,81.3,110.6,81.3z"/>
		</g>
	</g>
	<g id="XMLID_969_">
		<g id="XMLID_970_">
			<path id="XMLID_971_" class="st1" d="M106.2,66.3c-2.1,0-3.7,1.7-3.7,3.7s1.7,3.7,3.7,3.7s3.7-1.7,3.7-3.7
				C110,67.9,108.3,66.3,106.2,66.3z M106.2,71.3c-0.7,0-1.2-0.6-1.2-1.2c0-0.7,0.6-1.2,1.2-1.2c0.7,0,1.2,0.6,1.2,1.2
				C107.5,70.7,106.9,71.3,106.2,71.3z"/>
		</g>
	</g>
	<g id="XMLID_964_">
		<g id="XMLID_965_">
			<path id="XMLID_966_" class="st1" d="M61.9,67.5c-2.4,0-4.4,2-4.4,4.4c0,2.4,2,4.4,4.4,4.4c2.4,0,4.4-2,4.4-4.4
				C66.3,69.5,64.3,67.5,61.9,67.5z M61.9,73.8c-1,0-1.9-0.8-1.9-1.9s0.8-1.9,1.9-1.9c1,0,1.9,0.8,1.9,1.9S62.9,73.8,61.9,73.8z"/>
		</g>
	</g>
	<g id="XMLID_959_">
		<g id="XMLID_960_">
			<path id="XMLID_961_" class="st1" d="M67.5,58.8c-2.1,0-3.7,1.7-3.7,3.7c0,2.1,1.7,3.7,3.7,3.7s3.7-1.7,3.7-3.7
				C71.3,60.5,69.6,58.8,67.5,58.8z M67.5,63.8c-0.7,0-1.2-0.6-1.2-1.2c0-0.7,0.6-1.2,1.2-1.2c0.7,0,1.2,0.6,1.2,1.2
				C68.8,63.2,68.2,63.8,67.5,63.8z"/>
		</g>
	</g>
	<g id="XMLID_956_">
		<g id="XMLID_957_">
			<rect id="XMLID_958_" x="95" y="93.7" class="st1" width="3.7" height="2.5"/>
		</g>
	</g>
	<g id="XMLID_953_">
		<g id="XMLID_954_">
			<rect id="XMLID_955_" x="95" y="98.7" class="st1" width="2.5" height="2.5"/>
		</g>
	</g>
	<g id="XMLID_950_">
		<g id="XMLID_951_">
			<rect id="XMLID_952_" x="95" y="103.7" class="st1" width="3.7" height="2.5"/>
		</g>
	</g>
	<g id="XMLID_947_">
		<g id="XMLID_948_">
			<rect id="XMLID_949_" x="95" y="108.7" class="st1" width="2.5" height="2.5"/>
		</g>
	</g>
	<g id="XMLID_944_">
		<g id="XMLID_945_">
			<rect id="XMLID_946_" x="60" y="80" class="st1" width="2.5" height="2.5"/>
		</g>
	</g>
	<g id="XMLID_941_">
		<g id="XMLID_942_">
			<rect id="XMLID_943_" x="63.8" y="86.3" class="st1" width="2.5" height="2.5"/>
		</g>
	</g>
	<g id="XMLID_938_">
		<g id="XMLID_939_">
			<rect id="XMLID_940_" x="85" y="91.2" class="st1" width="2.5" height="2.5"/>
		</g>
	</g>
	<g id="XMLID_935_">
		<g id="XMLID_936_">
			<rect id="XMLID_937_" x="82.5" y="86.3" class="st1" width="2.5" height="2.5"/>
		</g>
	</g>
	<g id="XMLID_932_">
		<g id="XMLID_933_">
			<rect id="XMLID_934_" x="81.3" y="81.3" class="st1" width="2.5" height="2.5"/>
		</g>
	</g>
	<g id="XMLID_929_">
		<g id="XMLID_930_">
			<rect id="XMLID_931_" x="82.5" y="108.7" class="st1" width="2.5" height="2.5"/>
		</g>
	</g>
	<g id="XMLID_926_">
		<g id="XMLID_927_">
			<rect id="XMLID_928_" x="78.8" y="103.7" class="st1" width="2.5" height="2.5"/>
		</g>
	</g>
</g>
</svg>
