<?xml version="1.0" encoding="utf-8"?>
<!-- Generator: Adobe Illustrator 19.0.0, SVG Export Plug-In . SVG Version: 6.00 Build 0)  -->
<svg version="1.1" id="Layer_1" xmlns="http://www.w3.org/2000/svg" xmlns:xlink="http://www.w3.org/1999/xlink" x="0px" y="0px"
	 viewBox="0 0 175 175" style="enable-background:new 0 0 175 175;" xml:space="preserve">
<style type="text/css">
	.st0{fill:none;stroke:#FF9800;stroke-miterlimit:10;}
	.st1{fill:#F09333;}
</style>
<circle id="XMLID_1732_" class="st0" cx="87.5" cy="87.5" r="74.9"/>
<g id="XMLID_899_">
	<g id="XMLID_949_">
		<g id="XMLID_950_">
			<path id="XMLID_951_" class="st1" d="M106.2,58H68.8c-2.7,0-4.9,2.2-4.9,4.9v26.6c0,2.7,2.2,4.9,4.9,4.9h13.5l-1.4,4.9h-3.2v2
				h19.7v-2h-3.2l-1.4-4.9h13.5c2.7,0,4.9-2.2,4.9-4.9V62.9C111.1,60.2,108.9,58,106.2,58z M82.9,99.3l1.4-4.9h6.4l1.4,4.9H82.9z
				 M109.2,89.5c0,1.6-1.3,3-3,3H68.8c-1.6,0-3-1.3-3-3v-2h43.3V89.5z M109.2,85.5H65.8V62.9c0-1.6,1.3-3,3-3h37.4c1.6,0,3,1.3,3,3
				V85.5z"/>
		</g>
	</g>
	<g id="XMLID_944_">
		<g id="XMLID_945_">
			<path id="XMLID_946_" class="st1" d="M95.4,103.2H67.8c-0.5,0-1,0.4-1,1V116c0,0.5,0.4,1,1,1h27.6c0.5,0,1-0.4,1-1v-11.8
				C96.4,103.7,95.9,103.2,95.4,103.2z M94.4,115.1H68.8v-9.8h25.6V115.1z"/>
		</g>
	</g>
	<g id="XMLID_941_">
		<g id="XMLID_942_">
			<rect id="XMLID_943_" x="70.8" y="111.1" class="st1" width="2" height="2"/>
		</g>
	</g>
	<g id="XMLID_938_">
		<g id="XMLID_939_">
			<rect id="XMLID_940_" x="70.8" y="107.2" class="st1" width="2" height="2"/>
		</g>
	</g>
	<g id="XMLID_935_">
		<g id="XMLID_936_">
			<rect id="XMLID_937_" x="74.7" y="107.2" class="st1" width="2" height="2"/>
		</g>
	</g>
	<g id="XMLID_932_">
		<g id="XMLID_933_">
			<rect id="XMLID_934_" x="78.6" y="107.2" class="st1" width="2" height="2"/>
		</g>
	</g>
	<g id="XMLID_929_">
		<g id="XMLID_930_">
			<rect id="XMLID_931_" x="86.5" y="107.2" class="st1" width="2" height="2"/>
		</g>
	</g>
	<g id="XMLID_926_">
		<g id="XMLID_927_">
			<rect id="XMLID_928_" x="82.6" y="107.2" class="st1" width="2" height="2"/>
		</g>
	</g>
	<g id="XMLID_923_">
		<g id="XMLID_924_">
			<rect id="XMLID_925_" x="90.5" y="111.1" class="st1" width="2" height="2"/>
		</g>
	</g>
	<g id="XMLID_920_">
		<g id="XMLID_921_">
			<rect id="XMLID_922_" x="90.5" y="107.2" class="st1" width="2" height="2"/>
		</g>
	</g>
	<g id="XMLID_917_">
		<g id="XMLID_918_">
			<rect id="XMLID_919_" x="74.7" y="111.1" class="st1" width="13.8" height="2"/>
		</g>
	</g>
	<g id="XMLID_912_">
		<g id="XMLID_913_">
			<path id="XMLID_914_" class="st1" d="M103.2,103.2c-2.7,0-4.9,2.2-4.9,4.9v3.9c0,2.7,2.2,4.9,4.9,4.9s4.9-2.2,4.9-4.9v-3.9
				C108.2,105.5,106,103.2,103.2,103.2z M106.2,112.1c0,1.6-1.3,3-3,3s-3-1.3-3-3v-3.9c0-1.6,1.3-3,3-3s3,1.3,3,3V112.1z"/>
		</g>
	</g>
	<g id="XMLID_909_">
		<g id="XMLID_910_">
			<rect id="XMLID_911_" x="102.3" y="107.2" class="st1" width="2" height="2"/>
		</g>
	</g>
	<g id="XMLID_906_">
		<g id="XMLID_907_">
			
				<rect id="XMLID_908_" x="80.3" y="72.8" transform="matrix(-0.2751 0.9614 -0.9614 -0.2751 182.4554 9.9055)" class="st1" width="14.3" height="2"/>
		</g>
	</g>
	<g id="XMLID_903_">
		<g id="XMLID_904_">
			<path id="XMLID_905_" class="st1" d="M82.2,69.6L81,68L75.1,73c-0.4,0.3-0.5,1-0.1,1.4c0,0,0.1,0.1,0.1,0.1l5.9,4.9l1.3-1.5
				l-5-4.2L82.2,69.6z"/>
		</g>
	</g>
	<g id="XMLID_900_">
		<g id="XMLID_901_">
			<path id="XMLID_902_" class="st1" d="M100.1,73.1c0,0-0.1-0.1-0.1-0.1L94,68l-1.3,1.5l5,4.2l-5,4.2l1.3,1.5l5.9-4.9
				C100.4,74.1,100.4,73.5,100.1,73.1z"/>
		</g>
	</g>
</g>
</svg>
