<?xml version="1.0" encoding="utf-8"?>
<!-- Generator: Adobe Illustrator 19.0.0, SVG Export Plug-In . SVG Version: 6.00 Build 0)  -->
<svg version="1.1" id="Layer_1" xmlns="http://www.w3.org/2000/svg" xmlns:xlink="http://www.w3.org/1999/xlink" x="0px" y="0px"
	 viewBox="0 0 175 175" style="enable-background:new 0 0 175 175;" xml:space="preserve">
<style type="text/css">
	.st0{fill:none;stroke:#FF9800;stroke-miterlimit:10;}
	.st1{fill:#F09333;}
</style>
<circle id="XMLID_1732_" class="st0" cx="87.5" cy="87.5" r="74.9"/>
<g id="poker_x5F_hand">
	<g id="XMLID_977_">
		<g id="XMLID_1008_">
			<path id="XMLID_1009_" class="st1" d="M83.9,64.6c1.9,0,3.4-1.6,3.4-3.4c0-1.9-1.6-3.4-3.4-3.4s-3.4,1.6-3.4,3.4
				C80.4,63,82,64.6,83.9,64.6z M83.9,59.7c0.8,0,1.5,0.7,1.5,1.5c0,0.8-0.7,1.5-1.5,1.5c-0.8,0-1.5-0.7-1.5-1.5
				C82.4,60.4,83.1,59.7,83.9,59.7z"/>
		</g>
		<g id="XMLID_1006_">
			<path id="XMLID_1007_" class="st1" d="M59.2,104.6c-0.6,0-1.1,0.5-1.1,1.1c0,0.6,0.5,1.1,1.1,1.1s1.1-0.5,1.1-1.1
				C60.3,105,59.8,104.6,59.2,104.6z"/>
		</g>
		<g id="XMLID_1004_">
			<path id="XMLID_1005_" class="st1" d="M112.6,65.2c0.6,0,1.1-0.5,1.1-1.1c0-0.6-0.5-1.1-1.1-1.1c-0.6,0-1.1,0.5-1.1,1.1
				C111.5,64.7,112,65.2,112.6,65.2z"/>
		</g>
		<g id="XMLID_1002_">
			<path id="XMLID_1003_" class="st1" d="M113.7,112c-0.4-0.4-1-0.4-1.4,0l-1.1,1.1l-1.1-1.1c-0.4-0.4-1-0.4-1.4,0
				c-0.4,0.4-0.4,1,0,1.4l1.1,1.1l-1.1,1.1c-0.4,0.4-0.4,1,0,1.4c0.2,0.2,0.5,0.3,0.7,0.3c0.3,0,0.5-0.1,0.7-0.3l1.1-1.1l1.1,1.1
				c0.2,0.2,0.5,0.3,0.7,0.3c0.3,0,0.5-0.1,0.7-0.3c0.4-0.4,0.4-1,0-1.4l-1.1-1.1l1.1-1.1C114,113.1,114,112.4,113.7,112L113.7,112z
				"/>
		</g>
		<g id="XMLID_1000_">
			<path id="XMLID_1001_" class="st1" d="M63.2,64.5c-0.4-0.4-1-0.4-1.4,0l-1.1,1.1l-1.1-1.1c-0.4-0.4-1-0.4-1.4,0
				c-0.4,0.4-0.4,1,0,1.4l1.1,1.1l-1.1,1.1c-0.4,0.4-0.4,1,0,1.4c0.2,0.2,0.5,0.3,0.7,0.3c0.3,0,0.5-0.1,0.7-0.3l1.1-1.1l1.1,1.1
				c0.2,0.2,0.5,0.3,0.7,0.3c0.3,0,0.5-0.1,0.7-0.3c0.4-0.4,0.4-1,0-1.4L62.1,67l1.1-1.1C63.6,65.6,63.6,65,63.2,64.5L63.2,64.5z"/>
		</g>
		<g id="XMLID_998_">
			<path id="XMLID_999_" class="st1" d="M85.5,100.1c-0.6-0.2-1.3,0.1-1.6,0.7c-0.2,0.6,0.1,1.3,0.7,1.6c0.6,0.2,1.3-0.1,1.6-0.7
				C86.4,101,86.1,100.3,85.5,100.1z"/>
		</g>
		<g id="XMLID_992_">
			<path id="XMLID_993_" class="st1" d="M114.5,73.4l-19.8-7.3c-1.9-0.7-4,0.3-4.7,2.2l-2.6,7.1H69.3c-2.1,0-3.7,1.6-3.7,3.7v32.9
				c0,2.2,1.8,3.9,3.9,3.9h21.1c2.1,0,3.7-1.6,3.7-3.7v-3.2l6.5,2.4c0.4,0.1,0.8,0.2,1.2,0.2c1.5,0,2.9-0.9,3.4-2.4l11.3-31
				C117.6,76.4,116.5,74.2,114.5,73.4L114.5,73.4z M92.3,112.4c0,1-0.8,1.7-1.7,1.7H69.5c-1.1,0-1.9-0.9-1.9-1.9V79.2
				c0-1,0.8-1.7,1.7-1.7h17.4L82,90.4c-1-1.2-1.8-2-1.9-2c-0.2-0.2-0.5-0.3-0.7-0.3c-0.3,0-0.5,0.1-0.7,0.3
				c-1.9,1.9-6.1,6.7-6.1,8.5c0,2.2,1.9,4,4.3,4c0.6,0,1.2-0.1,1.6-0.3c0,1.6,1,3.2,2.5,3.8l11.3,4.1L92.3,112.4L92.3,112.4z
				 M79.3,97.7c-0.3,0-0.5,0.1-0.6,0.3c-0.4,0.5-1.1,0.8-1.9,0.8c-1.2,0-2.3-0.9-2.3-2c0.1-0.8,2.5-3.8,4.9-6.4
				c0.5,0.5,1.1,1.2,1.8,2L79.3,97.7z M115,77.7l-11.3,31c-0.3,0.9-1.3,1.3-2.2,1l-19.8-7.3c-1-0.3-1.5-1.5-1.2-2.5l11.3-31
				c0.3-0.9,1.3-1.3,2.2-1l19.8,7.3C114.8,75.6,115.4,76.8,115,77.7z"/>
		</g>
		<g id="XMLID_990_">
			<path id="XMLID_991_" class="st1" d="M102.1,106.2c-0.6-0.2-1.3,0.1-1.6,0.7c-0.2,0.6,0.1,1.3,0.7,1.6c0.6,0.2,1.3-0.1,1.6-0.7
				S102.7,106.5,102.1,106.2z"/>
		</g>
		<g id="XMLID_988_">
			<path id="XMLID_989_" class="st1" d="M89.4,112.4c0.6,0.2,1.3-0.1,1.6-0.7c0.2-0.6-0.1-1.3-0.7-1.6c-0.6-0.2-1.3,0.1-1.6,0.7
				C88.5,111.5,88.8,112.2,89.4,112.4z"/>
		</g>
		<g id="XMLID_984_">
			<path id="XMLID_985_" class="st1" d="M99.9,81.4c-0.3-0.1-0.5-0.1-0.8,0.1c-2.4,1.2-8,4.2-8.6,5.9c-0.3,1-0.3,2.1,0.2,3.1
				c0.5,1,1.4,1.7,2.4,2.1c0.5,0.2,1.2,0.3,1.7,0.3l-0.9,2.5c-0.2,0.5,0.1,1.1,0.6,1.2c0.1,0.1,0.2,0.1,0.3,0.1c0.4,0,0.8-0.3,1-0.6
				l0.9-2.4c0.4,0.3,0.8,0.6,1.3,0.8c0.5,0.2,1,0.3,1.5,0.3c0.5,0,1.1-0.1,1.6-0.3c1-0.4,1.8-1.2,2.2-2.3c0.6-1.7-1.7-7.6-2.8-10.1
				C100.3,81.7,100.1,81.5,99.9,81.4L99.9,81.4z M101.4,91.4c-0.2,0.5-0.5,0.9-1.1,1.1c-0.5,0.2-1.2,0.2-1.7,0c-0.5-0.2-1-0.5-1.2-1
				l0.1-0.1c0.2-0.5-0.1-1.1-0.6-1.2c-0.5-0.2-1,0.1-1.2,0.5c-0.5,0.3-1.2,0.3-1.9,0.1c-0.5-0.2-1-0.6-1.3-1.2
				c-0.3-0.5-0.3-1-0.1-1.5c0.3-0.7,3.6-2.7,6.8-4.3C100.3,87,101.6,90.6,101.4,91.4L101.4,91.4z"/>
		</g>
		<g id="XMLID_982_">
			<path id="XMLID_983_" class="st1" d="M91.8,77.7c0.1,0.1,0.2,0.1,0.3,0.1c0.4,0,0.8-0.3,1-0.6l0.2-0.5l0.8,1.6
				c0.1,0.3,0.5,0.5,0.9,0.5c0.1,0,0.3,0,0.4-0.1c0.5-0.2,0.7-0.8,0.5-1.3l-1-2l1.6-0.3c0.5-0.1,0.9-0.6,0.8-1.2
				c-0.1-0.5-0.6-0.9-1.2-0.8l-1.6,0.3l0.7-1.9c0.2-0.5-0.1-1.1-0.6-1.2c-0.5-0.2-1.1,0.1-1.2,0.6l-2.1,5.6
				C91.1,77,91.4,77.5,91.8,77.7L91.8,77.7z"/>
		</g>
		<g id="XMLID_978_">
			<path id="XMLID_979_" class="st1" d="M74.1,86.3c0.1,0.1,0.3,0.1,0.4,0.1c0.3,0,0.7-0.2,0.9-0.5c0.3-0.5,0.1-1.1-0.4-1.3
				l-0.8-0.4c0.2-0.3,0.3-0.8,0.3-1.2v-1c0-1.4-1.1-2.5-2.5-2.5s-2.5,1.1-2.5,2.5v1c0,1.4,1.1,2.5,2.5,2.5c0.1,0,0.1,0,0.2,0
				L74.1,86.3z M71.6,81.9c0-0.3,0.2-0.5,0.5-0.5c0.3,0,0.5,0.2,0.5,0.5v1c0,0.3-0.2,0.5-0.5,0.5c-0.3,0-0.5-0.2-0.5-0.5V81.9z"/>
		</g>
	</g>
</g>
</svg>
