<?xml version="1.0" encoding="utf-8"?>
<!-- Generator: Adobe Illustrator 19.0.0, SVG Export Plug-In . SVG Version: 6.00 Build 0)  -->
<svg version="1.1" id="Layer_1" xmlns="http://www.w3.org/2000/svg" xmlns:xlink="http://www.w3.org/1999/xlink" x="0px" y="0px"
	 viewBox="0 0 175 175" style="enable-background:new 0 0 175 175;" xml:space="preserve">
<style type="text/css">
	.st0{fill:none;stroke:#FF9800;stroke-miterlimit:10;}
	.st1{fill:#FF9800;}
</style>
<circle id="XMLID_1732_" class="st0" cx="87.5" cy="87.5" r="74.9"/>
<g>
	<g>
		<g>
			<path class="st1" d="M111,111c2.9,0,5.2-2.3,5.2-5.2c0-2.9-2.3-5.2-5.2-5.2s-5.2,2.3-5.2,5.2C105.7,108.6,108.1,111,111,111z
				 M111,103.1c1.4,0,2.6,1.2,2.6,2.6s-1.2,2.6-2.6,2.6s-2.6-1.2-2.6-2.6C108.4,104.3,109.5,103.1,111,103.1z"/>
			<path class="st1" d="M118.3,72.9L90,59.2c-2.3-1.1-4.8-1.7-7.4-1.7H57.3c-2.7,0-5.3,1.1-7.2,3s-3,4.5-3,7.2v13.7l2.6,3.5v11.7
				h2.6v-8.1l5.1,6.9c-3.9,2-6.4,6-6.4,10.4c0,6.5,5.3,11.7,11.7,11.7c6,0,11-4.6,11.7-10.4h24.9c0.7,5.9,5.6,10.4,11.7,10.4
				c6.5,0,11.7-5.3,11.7-11.7c0-6.5-5.3-11.7-11.7-11.7c-6,0-11,4.6-11.7,10.4h-2.6h-0.1C96.4,98.4,94.5,93.7,93,91l5.7,0.8
				l-3.1-7.7l-43.1-7l-0.4,2.6l41.6,6.7l0.8,2.1l-34.9-5.2l0.5,1.9c0.1,0.4,2.8,11.1,11.1,15.2c3.2,1.6,7.8,3,12.2,4H67.2L49.6,80.5
				V67.7c0-2,0.8-3.9,2.2-5.4s3.3-2.2,5.4-2.2h25.3c2.1,0,4.3,0.5,6.2,1.4L117,75.2c4.9,2.4,8.1,7.4,8.1,12.9v7.8
				c-1.3-1.7-2.7-3.3-4.3-4.7c0.7-0.2,1.3-0.5,1.8-1c0.8-0.8,1.2-1.8,1.2-2.9c0-1.5-0.8-2.8-2-3.6l0,0l-37-19.1
				c-2.4-1.2-5.1-1.9-7.8-1.9H61.8c-3.9,0-7,3.2-7,7c0,1.7,0.7,3.3,1.9,4.5c0.9,0.9,2.1,1.5,3.3,1.7l60,9.8c0.7,0.1,1.3,0.8,1.3,1.6
				c0,0.4-0.1,0.7-0.4,1s-0.6,0.4-1,0.4h-2.4c-2.1-1.3-4.4-2.3-6.8-3c-2.3-0.6-4.7-0.9-7.1-0.9h-3.1v10.4h2.6v-7.7h0.5
				c2.2,0,4.3,0.3,6.4,0.9c6.6,1.8,12.2,6.4,15.3,12.5v6.2h2.6v-6.6v-0.3v-12C127.9,81.7,124.1,75.7,118.3,72.9z M111,96.6
				c5,0,9.1,4.1,9.1,9.1s-4.1,9.1-9.1,9.1s-9.1-4.1-9.1-9.1C101.8,100.7,105.9,96.6,111,96.6z M73.2,87.9l16.5,2.4
				c1.2,1.8,3.9,6.7,4.3,13.6c-1.4-0.2-3.2-0.6-5.2-1v-3.2c0-3.2-2.3-5.9-5.4-6.4l-9.1-1.5c-0.6-0.1-1.1-0.6-1.1-1.3V87.9z
				 M72.4,98.1c-5.2-2.6-8-8.5-9.1-11.6l7.2,1.1v2.9c0,1.9,1.4,3.5,3.3,3.9l9.1,1.5c1.9,0.3,3.3,1.9,3.3,3.9v2.7
				C81.3,101.3,75.9,99.8,72.4,98.1z M63.1,103.2l2.2,3c-0.2,1.3-1.3,2.2-2.6,2.2c-1.4,0-2.6-1.2-2.6-2.6s1.2-2.6,2.6-2.6
				C62.9,103.1,63,103.2,63.1,103.2z M61.3,100.7c-2.2,0.6-3.8,2.6-3.8,5c0,2.9,2.3,5.2,5.2,5.2c2.4,0,4.4-1.7,5-3.9h4
				c-0.6,4.4-4.4,7.8-9,7.8c-5,0-9.1-4.1-9.1-9.1c0-3.6,2.1-6.8,5.3-8.3L61.3,100.7z M70.6,75.1l-5.2-0.9v-1c0-1.4,1.2-2.6,2.6-2.6
				c1.4,0,2.6,1.2,2.6,2.6L70.6,75.1L70.6,75.1z M73.2,75.5v-2.3c0-2.9-2.3-5.2-5.2-5.2s-5.2,2.3-5.2,5.2v0.6l-2.2-0.4
				c-0.7-0.1-1.4-0.5-2-1c-0.7-0.7-1.1-1.6-1.1-2.6c0-2.5,2-4.4,4.4-4.4h15.2c2.3,0,4.5,0.6,6.6,1.6l29.1,15L73.2,75.5z"/>
		</g>
	</g>
</g>
</svg>
