<?xml version="1.0" encoding="utf-8"?>
<!-- Generator: Adobe Illustrator 19.0.0, SVG Export Plug-In . SVG Version: 6.00 Build 0)  -->
<svg version="1.1" id="Layer_1" xmlns="http://www.w3.org/2000/svg" xmlns:xlink="http://www.w3.org/1999/xlink" x="0px" y="0px"
	 viewBox="0 0 175 175" style="enable-background:new 0 0 175 175;" xml:space="preserve">
<style type="text/css">
	.st0{fill:none;stroke:#FF9800;stroke-miterlimit:10;}
	.st1{fill:#F09333;}
</style>
<circle id="XMLID_1732_" class="st0" cx="87.5" cy="87.5" r="74.9"/>
<g id="XMLID_912_">
	<path id="XMLID_921_" class="st1" d="M117.1,105l-3.6-6.2c-0.3-0.5-0.7-0.8-1.1-1.1V94c0-0.6-0.5-1.2-1.2-1.2h-6.7
		c-0.6,0-1.2,0.5-1.2,1.2c0,0.6,0.5,1.2,1.2,1.2h5.6v2.6c-0.5,0.2-0.9,0.6-1.1,1.1l-3.6,6.2c-0.5,0.8-0.5,1.8,0,2.7
		c0.5,0.8,1.3,1.3,2.3,1.3h2.4v2.3H93.3c-0.2-3.1-2.7-5.6-5.8-5.6c-3.2,0-5.9,2.6-5.9,5.9c0,3.2,2.6,5.9,5.9,5.9
		c2.5,0,4.6-1.6,5.5-3.8h18.3c0.6,0,1.2-0.5,1.2-1.2V109h2.4c1,0,1.8-0.5,2.3-1.3C117.6,106.8,117.6,105.8,117.1,105z M87.5,115.1
		c-1.9,0-3.5-1.6-3.5-3.5c0-1.9,1.6-3.5,3.5-3.5c1.9,0,3.5,1.6,3.5,3.5C91,113.6,89.4,115.1,87.5,115.1z M115.1,106.5
		c0,0.1-0.1,0.2-0.3,0.2h-7.1c-0.2,0-0.2-0.1-0.3-0.2c0-0.1-0.1-0.2,0-0.3l3.6-6.2c0.1-0.1,0.2-0.2,0.3-0.2s0.2,0,0.3,0.2l3.6,6.2
		C115.2,106.3,115.1,106.4,115.1,106.5z"/>
	<path id="XMLID_914_" class="st1" d="M80.6,95.1l6.1,6.1c0.2,0.2,0.5,0.3,0.8,0.3c0.3,0,0.6-0.1,0.8-0.3l6.5-6.5
		c0.5-0.5,0.5-1.2,0-1.7L88.7,87v-3.7h5.9c0.6,0,1.2-0.5,1.2-1.2v-8.4c0-0.6-0.5-1.2-1.2-1.2h-5.9v-4.2h5.9c0.6,0,1.2-0.5,1.2-1.2
		v-8.4c0-0.6-0.5-1.2-1.2-1.2H80.5c-0.6,0-1.2,0.5-1.2,1.2v8.4c0,0.6,0.5,1.2,1.2,1.2h5.9v4.2h-5.9c-0.6,0-1.2,0.5-1.2,1.2v3H63.4
		c-0.6,0-1.2,0.5-1.2,1.2v10.2h-3.5c-0.6,0-1.2,0.5-1.2,1.2v9.4c0,0.6,0.5,1.2,1.2,1.2h9.4c0.6,0,1.2-0.5,1.2-1.2v-3.5H80.6z
		 M81.6,59.9h11.7V66H81.6V59.9z M87.5,98.8L82.7,94l4.8-4.8l4.8,4.8L87.5,98.8z M81.6,74.9h11.7v6.1H81.6V74.9z M64.5,79.1h14.8v3
		c0,0.6,0.5,1.2,1.2,1.2h5.9V87l-5.8,5.8H69.2v-3.5c0-0.6-0.5-1.2-1.2-1.2h-3.5V79.1z M66.9,97.5h-7v-7h7V97.5z"/>
	<path id="XMLID_913_" class="st1" d="M99.2,95.1c0.3,0,0.6-0.1,0.8-0.3c0.2-0.2,0.3-0.5,0.3-0.8c0-0.3-0.1-0.6-0.3-0.8
		c-0.2-0.2-0.5-0.3-0.8-0.3c-0.3,0-0.6,0.1-0.8,0.3c-0.2,0.2-0.3,0.5-0.3,0.8c0,0.3,0.1,0.6,0.3,0.8C98.6,95,98.9,95.1,99.2,95.1z"
		/>
</g>
</svg>
