<?xml version="1.0" encoding="utf-8"?>
<!-- Generator: Adobe Illustrator 19.0.0, SVG Export Plug-In . SVG Version: 6.00 Build 0)  -->
<svg version="1.1" id="Layer_1" xmlns="http://www.w3.org/2000/svg" xmlns:xlink="http://www.w3.org/1999/xlink" x="0px" y="0px"
	 viewBox="0 0 175 175" style="enable-background:new 0 0 175 175;" xml:space="preserve">
<style type="text/css">
	.st0{fill:none;stroke:#FF9800;stroke-miterlimit:10;}
	.st1{fill:#F09333;}
</style>
<circle id="XMLID_1732_" class="st0" cx="87.5" cy="87.5" r="74.9"/>
<g id="XMLID_964_">
	<g id="XMLID_998_">
		<g id="XMLID_999_">
			<path id="XMLID_1000_" class="st1" d="M89,86c-0.5-0.5-1.2-0.5-1.7,0c-0.5,0.5-0.5,1.2,0,1.7c0.5,0.5,1.2,0.5,1.7,0
				C89.4,87.2,89.4,86.5,89,86z"/>
		</g>
	</g>
	<g id="XMLID_993_">
		<g id="XMLID_994_">
			<path id="XMLID_995_" class="st1" d="M103.9,71.1c-2.3-2.3-6-2.3-8.3,0c-2.3,2.3-2.3,6,0,8.3c2.3,2.3,6,2.3,8.3,0
				C106.2,77.1,106.2,73.4,103.9,71.1z M102.2,77.7c-1.4,1.4-3.6,1.4-5,0c-1.4-1.4-1.4-3.6,0-5c1.4-1.4,3.6-1.4,5,0
				C103.6,74.1,103.6,76.4,102.2,77.7z"/>
		</g>
	</g>
	<g id="XMLID_983_">
		<g id="XMLID_984_">
			<path id="XMLID_985_" class="st1" d="M117.1,57.9c-0.2-0.2-0.5-0.4-0.9-0.3c-0.3,0-6.6,0.3-14.1,2.9c-6,2.1-11,5.2-14.9,9
				c-0.9,0.9-1.7,1.8-2.5,2.7c-3.8-2.3-6.9-1.5-8.8-0.5c-4.5,2.4-7.2,8.9-7.2,13.5c0,0.5,0.3,0.9,0.7,1.1c0.1,0.1,0.3,0.1,0.4,0.1
				c0.3,0,0.6-0.1,0.8-0.3c2.4-2.4,5.3-2.2,6.2-2.1l0.4,0.4c-0.8,1.9-1.5,3.8-1.9,5.7c-0.2,0.7-0.1,1.4,0.1,2
				c-1.1,0.5-2.2,1.3-3.2,2.2c-3,3-3.6,10.4-3.7,10.7c0,0.3,0.1,0.7,0.3,0.9c0.2,0.2,0.5,0.3,0.8,0.3c0,0,0.1,0,0.1,0
				c0.3,0,7.7-0.6,10.7-3.7c0.9-0.9,1.7-2,2.2-3.2c0.7,0.3,1.4,0.3,2,0.1c1.9-0.5,3.8-1.1,5.7-1.9l0.4,0.4c0.1,0.9,0.3,3.8-2.1,6.2
				c-0.3,0.3-0.4,0.8-0.3,1.3c0.2,0.4,0.6,0.7,1.1,0.7c4.6,0,11.1-2.8,13.5-7.2c1-1.9,1.7-5-0.5-8.8c1-0.8,1.9-1.6,2.7-2.5
				c3.9-3.9,6.9-8.9,9-14.9c2.6-7.5,2.9-13.8,2.9-14.1C117.5,58.4,117.4,58.1,117.1,57.9z M71.4,82.7c0.7-3.5,2.8-7.4,5.7-8.9
				c1.9-1,4-0.9,6.2,0.3c-1.9,2.5-3.5,5.2-4.9,8c0,0-0.2-0.3-0.6-0.4C77.6,81.7,74.5,81,71.4,82.7z M79,100.9
				c-1.6,1.6-5.4,2.5-7.8,2.8c0.3-2.4,1.2-6.2,2.8-7.8c0.9-0.9,1.9-1.6,3-2l3.9,3.9C80.6,99,79.9,100,79,100.9z M84.4,97.3
				c-0.3,0.1-0.7,0-1-0.3c-1.5-1.5-2.1-2.1-2.3-2.3c-0.3-0.3-1.2-1.2-3-3c-0.3-0.3-0.4-0.7-0.3-1c0.4-1.5,0.9-3,1.5-4.5l9.7,9.7
				C87.3,96.4,85.8,96.9,84.4,97.3z M101.2,97.9c-1.5,2.9-5.4,5-8.9,5.7c1.1-2.1,1.4-4.8,1-6.4c-0.1-0.4-0.3-0.6-0.4-0.6
				c2.8-1.4,5.5-3,8-4.9C102.2,93.9,102.3,96,101.2,97.9z M103.9,86c-1.1,1.1-2.2,2.1-3.4,3c-2.9,2.3-6,4.2-9.3,5.8l-11-11
				c1.5-3.3,3.5-6.5,5.8-9.3c1-1.2,2-2.3,3-3.4c3.5-3.5,7.9-6.2,13.3-8.2l9.8,9.8C110.1,78.1,107.4,82.5,103.9,86z M112.9,70.2
				l-8.2-8.2c4.5-1.4,8.3-1.9,10.3-2.1C114.8,61.9,114.3,65.8,112.9,70.2z"/>
		</g>
	</g>
	<g id="XMLID_980_">
		<g id="XMLID_981_">
			<path id="XMLID_982_" class="st1" d="M85.7,105.9c-0.5-0.5-1.2-0.5-1.7,0l-3.3,3.3c-0.5,0.5-0.5,1.2,0,1.7c0.5,0.5,1.2,0.5,1.7,0
				l3.3-3.3C86.1,107.1,86.1,106.3,85.7,105.9z"/>
		</g>
	</g>
	<g id="XMLID_977_">
		<g id="XMLID_978_">
			<path id="XMLID_979_" class="st1" d="M69.1,89.3c-0.5-0.5-1.2-0.5-1.7,0l-3.3,3.3c-0.5,0.5-0.5,1.2,0,1.7c0.5,0.5,1.2,0.5,1.7,0
				l3.3-3.3C69.6,90.5,69.6,89.8,69.1,89.3z"/>
		</g>
	</g>
	<g id="XMLID_974_">
		<g id="XMLID_975_">
			<path id="XMLID_976_" class="st1" d="M77.4,107.5c-0.5-0.5-1.2-0.5-1.7,0l-7.9,7.9c-0.5,0.5-0.5,1.2,0,1.7c0.5,0.5,1.2,0.5,1.7,0
				l7.9-7.9C77.8,108.7,77.8,108,77.4,107.5z"/>
		</g>
	</g>
	<g id="XMLID_971_">
		<g id="XMLID_972_">
			<path id="XMLID_973_" class="st1" d="M68,107.5c-0.5-0.5-1.2-0.5-1.7,0l-7.9,7.9c-0.5,0.5-0.5,1.2,0,1.7c0.5,0.5,1.2,0.5,1.7,0
				l7.9-7.9C68.5,108.7,68.5,108,68,107.5z"/>
		</g>
	</g>
	<g id="XMLID_968_">
		<g id="XMLID_969_">
			<path id="XMLID_970_" class="st1" d="M67.5,97.6c-0.5-0.5-1.2-0.5-1.7,0l-7.9,7.9c-0.5,0.5-0.5,1.2,0,1.7c0.5,0.5,1.2,0.5,1.7,0
				l7.9-7.9C67.9,98.8,67.9,98.1,67.5,97.6z"/>
		</g>
	</g>
	<g id="XMLID_965_">
		<g id="XMLID_966_">
			<path id="XMLID_967_" class="st1" d="M93.9,81.1c-0.5-0.5-1.2-0.5-1.7,0l-1.7,1.7c-0.5,0.5-0.5,1.2,0,1.7c0.5,0.5,1.2,0.5,1.7,0
				l1.7-1.7C94.4,82.2,94.4,81.5,93.9,81.1z"/>
		</g>
	</g>
</g>
</svg>
