<?xml version="1.0" encoding="utf-8"?>
<!-- Generator: Adobe Illustrator 19.0.0, SVG Export Plug-In . SVG Version: 6.00 Build 0)  -->
<svg version="1.1" id="Layer_1" xmlns="http://www.w3.org/2000/svg" xmlns:xlink="http://www.w3.org/1999/xlink" x="0px" y="0px"
	 viewBox="0 0 175 175" style="enable-background:new 0 0 175 175;" xml:space="preserve">
<style type="text/css">
	.st0{fill:none;stroke:#FF9800;stroke-miterlimit:10;}
	.st1{fill:#F09333;}
</style>
<circle id="XMLID_1732_" class="st0" cx="87.5" cy="87.5" r="74.9"/>
<g id="XMLID_938_">
	<path id="XMLID_945_" class="st1" d="M131.5,105.5h-4.7c6-4.6,7.2-13.2,2.6-19.2c-1.1-1.4-2.4-2.6-3.9-3.5v-3h2.3
		c0.5,0,0.9-0.2,1.2-0.6l3.7-5.3c0.4-0.6,0.3-1.5-0.4-2c-0.2-0.2-0.5-0.2-0.8-0.2h-6v-3.4c0-0.8-0.6-1.4-1.4-1.4c0,0,0,0,0,0
		l-5.6,0.1c-6.9,0-12.3,4.4-15.7,12.7c-0.7,1.8-1.3,3.7-1.8,5.5H85.4c-0.5,0-0.9,0.2-1.2,0.6l-3.3,4.8h-4.6l5.7-9.4l2.3,1.4
		c0.7,0.4,1.6,0.2,1.9-0.5c0.4-0.7,0.2-1.5-0.5-1.9L79,75.9c-0.7-0.4-1.5-0.2-2,0.4c-0.4,0.7-0.2,1.5,0.4,2c0,0,0,0,0,0l2.1,1.3
		l-4.3,7.2v-9.9c0-0.8-0.6-1.4-1.4-1.4c-15.3,0-21.4,12.7-22.7,16c-10.4,2.9-8.9,11-8.9,11.1c0.1,0.7,0.7,1.1,1.4,1.1h7.3
		c0.4,0.7,1,1.3,1.6,1.8h-8.9c-0.8,0-1.4,0.6-1.4,1.4c0,0.8,0.6,1.4,1.4,1.4h88c0.8,0,1.4-0.6,1.4-1.4
		C132.9,106.1,132.3,105.5,131.5,105.5L131.5,105.5z M129.3,94.5c0,6-4.9,10.9-10.9,10.9s-10.9-4.9-10.9-10.9
		c0-6,4.9-10.9,10.9-10.9C124.4,83.6,129.3,88.5,129.3,94.5L129.3,94.5z M127.1,76.9h-8.4v-2.5h10.1L127.1,76.9z M118.4,69.7
		l4.2-0.1v2h-5.4c-0.8,0-1.4,0.6-1.4,1.4v5.3c0,0.8,0.6,1.4,1.4,1.4h5.4v1.7c-7.2-2.4-15,1.6-17.3,8.8c-1.1,3.5-0.8,7.3,0.8,10.5
		H69.7c0.7-2.5,0.5-5.2-0.6-7.5h32.1c0.7,0,1.4-0.6,1.4-1.3C102.6,91.8,104.6,69.7,118.4,69.7L118.4,69.7z M86.2,87.9h14.1
		c-0.2,1-0.3,1.9-0.4,2.5H84.4L86.2,87.9z M72.4,78.3v12.1h-5.3c-2.8-2.9-7.1-3.9-10.9-2.5C58.9,83.9,63.9,78.8,72.4,78.3z
		 M44.9,100.8c0.1-1.5,0.8-4.1,4.6-5.8c-0.5,1.9-0.5,3.9,0,5.8H44.9z M52,97.8c0-4.2,3.4-7.7,7.7-7.7c4.2,0,7.7,3.4,7.7,7.7
		c0,4.2-3.4,7.7-7.7,7.7C55.4,105.5,52,102,52,97.8L52,97.8z M66.8,105.5c0.6-0.5,1.1-1.2,1.6-1.8h39.7c0.6,0.7,1.2,1.3,2,1.8H66.8z
		"/>
	<path id="XMLID_942_" class="st1" d="M59.6,94c-2.1,0-3.8,1.7-3.8,3.8s1.7,3.8,3.8,3.8s3.8-1.7,3.8-3.8C63.4,95.7,61.7,94,59.6,94z
		 M59.6,98.8c-0.5,0-1-0.4-1-1c0-0.5,0.4-1,1-1c0.5,0,1,0.4,1,1C60.6,98.3,60.1,98.8,59.6,98.8L59.6,98.8z"/>
	<path id="XMLID_939_" class="st1" d="M111.9,94.5c0,3.6,2.9,6.5,6.5,6.5s6.5-2.9,6.5-6.5c0-3.6-2.9-6.5-6.5-6.5
		C114.8,88.1,111.9,91,111.9,94.5z M122,94.5c0,2-1.6,3.6-3.6,3.6c-2,0-3.6-1.6-3.6-3.6c0-2,1.6-3.6,3.6-3.6
		C120.4,90.9,122,92.5,122,94.5L122,94.5z"/>
</g>
</svg>
