<svg xmlns="http://www.w3.org/2000/svg" width="89.69" height="89.69" viewBox="0 0 89.69 89.69"><defs><style>.cls-1{fill:#ff9800;}.cls-2{fill:none;stroke:#ff9800;stroke-miterlimit:10;}</style></defs><title>FE_icon</title><g id="Layer_2" data-name="Layer 2"><g id="Layer_2-2" data-name="Layer 2"><path class="cls-1" d="M60.22,20.57H29.47a4.06,4.06,0,0,0-4,4.05V46.46a4,4,0,0,0,4,4H40.54l-1.16,4H36.75v1.62H52.94V54.55H50.31l-1.16-4H60.22a4,4,0,0,0,4-4V24.62A4.06,4.06,0,0,0,60.22,20.57Zm-19.16,34,1.16-4h5.25l1.16,4Zm21.58-8.09a2.42,2.42,0,0,1-2.42,2.43H29.47a2.42,2.42,0,0,1-2.42-2.43V44.84H62.64Zm0-3.23H27.05V24.62a2.42,2.42,0,0,1,2.42-2.43H60.22a2.42,2.42,0,0,1,2.42,2.43Z"/><path class="cls-1" d="M51.32,57.79H28.66a.8.8,0,0,0-.8.81v9.71a.81.81,0,0,0,.8.81H51.32a.82.82,0,0,0,.81-.81V58.6A.81.81,0,0,0,51.32,57.79Zm-.81,9.71h-21V59.41h21Z"/><rect class="cls-1" x="31.09" y="64.26" width="1.62" height="1.62"/><rect class="cls-1" x="31.09" y="61.03" width="1.62" height="1.62"/><rect class="cls-1" x="34.33" y="61.03" width="1.62" height="1.62"/><rect class="cls-1" x="37.56" y="61.03" width="1.62" height="1.62"/><rect class="cls-1" x="44.04" y="61.03" width="1.62" height="1.62"/><rect class="cls-1" x="40.8" y="61.03" width="1.62" height="1.62"/><rect class="cls-1" x="47.27" y="64.26" width="1.62" height="1.62"/><rect class="cls-1" x="47.27" y="61.03" width="1.62" height="1.62"/><rect class="cls-1" x="34.33" y="64.26" width="11.33" height="1.62"/><path class="cls-1" d="M57.79,57.79a4.05,4.05,0,0,0-4,4v3.24a4,4,0,1,0,8.09,0V61.83A4,4,0,0,0,57.79,57.79Zm2.43,7.28a2.43,2.43,0,0,1-4.86,0V61.83a2.43,2.43,0,0,1,4.86,0Z"/><rect class="cls-1" x="56.98" y="61.03" width="1.62" height="1.62"/><rect class="cls-1" x="38.95" y="32.72" width="11.77" height="1.62" transform="translate(0.27 67.42) rotate(-74.03)"/><path class="cls-1" d="M40.51,30.1l-1-1.25-4.85,4a.81.81,0,0,0-.1,1.14l.1.1,4.85,4,1-1.25L36.4,33.52Z"/><path class="cls-1" d="M55.17,33l-.1-.1-4.85-4-1,1.25,4.11,3.42-4.11,3.42,1,1.25,4.85-4A.81.81,0,0,0,55.17,33Z"/><circle class="cls-2" cx="44.84" cy="44.84" r="44.34"/></g></g></svg>