<svg xmlns="http://www.w3.org/2000/svg" width="397.01" height="90.53" viewBox="0 0 397.01 90.53"><defs><style>.cls-1{fill:#f8981d;}</style></defs><title>logo_with_tagline</title><g id="Layer_2" data-name="Layer 2"><g id="Layer_1-2" data-name="Layer 1"><path class="cls-1" d="M313.21,57.93V48.76H289.65V39.92L303.37,2.4h12.79L301.27,38.66h11.94V23.09h11.61V38.66h5.31v10.1h-5.31v9.17Z"/><path class="cls-1" d="M359.36,8.29q5.43-6.9,16.11-6.9t16.12,6.9Q397,15.19,397,30.46t-5.38,21.87q-5.38,6.62-16.16,6.61t-16.15-6.61q-5.38-6.6-5.39-21.87T359.36,8.29Zm25.7,21.91q0-10.38-2.18-14.55t-7.36-4.17a7.74,7.74,0,0,0-7.41,4.21q-2.22,4.22-2.23,14.56t2.27,14.47a7.82,7.82,0,0,0,7.41,4.12q5.13,0,7.32-4.12T385.06,30.2Z"/><circle class="cls-1" cx="342.67" cy="50.65" r="7.22"/><path class="cls-1" d="M36.82,57.93H25.54V15.86H36.73v2.36q5.73-3.37,10.52-3.37,8.41,0,11.61,5t3.2,15.32v22.8H50.78V35.46q0-5.38-1.26-7.95T44.47,25a19.15,19.15,0,0,0-6.64,1.17l-1,.34Z"/><path class="cls-1" d="M67.78,15.86H79.56l6.73,32.48h2.35l7.07-32.48h11.44L97.06,57.93H77.88Z"/><path class="cls-1" d="M124.36,47.29A8.38,8.38,0,0,0,130,49q7.83,0,14-.5l2.35-.26.17,8.33A74.68,74.68,0,0,1,129,58.94q-9.51,0-13.8-5t-4.29-16.41q0-22.62,18.6-22.63,18.33,0,18.34,19L147,41.69H122.3Q122.38,45.56,124.36,47.29Zm12.41-14.18q0-5.05-1.6-7c-1.06-1.31-2.93-2-5.59-2s-4.55.68-5.64,2.06-1.67,3.69-1.72,6.94Z"/><path class="cls-1" d="M167.23,57.93H156V15.86h11.19v2.36q5.73-3.37,10.52-3.37,8.42,0,11.61,5t3.2,15.32v22.8H181.2V35.46c0-3.59-.43-6.24-1.27-7.95s-2.52-2.56-5-2.56a19.16,19.16,0,0,0-6.65,1.17l-1,.34Z"/><path class="cls-1" d="M225.79,25.45H215.44V42.7c0,1.68,0,2.88.12,3.58a2.92,2.92,0,0,0,.93,1.8,3.47,3.47,0,0,0,2.48.76l6.4-.17.5,9a42.93,42.93,0,0,1-8.58,1.26q-7.57,0-10.35-3.41T204.16,43V25.45h-5V15.86h5V4.16h11.28v11.7h10.35Z"/><path class="cls-1" d="M244.42,47.29A8.38,8.38,0,0,0,250.1,49q7.83,0,14-.5l2.36-.26.16,8.33a74.68,74.68,0,0,1-17.5,2.36q-9.51,0-13.8-5T231,37.48q0-22.62,18.6-22.63,18.33,0,18.34,19l-.84,7.82H242.36C242.42,44.27,243.1,46.14,244.42,47.29Zm12.41-14.18q0-5.05-1.6-7c-1.06-1.31-2.93-2-5.59-2s-4.54.68-5.64,2.06-1.67,3.69-1.72,6.94Z"/><circle class="cls-1" cx="7.85" cy="7.22" r="7.22"/><polygon class="cls-1" points="7.46 59.7 0 46.01 4.32 18.68 10.82 18.68 15.71 46.01 7.46 59.7"/><path class="cls-1" d="M2,90.31V76.61h8.64v1.94H4.22v3.88H9.44v1.92H4.22v4h6.42v2Z"/><path class="cls-1" d="M24.24,76.61,27.18,82l3-5.4H32.5l-4.06,7,4.06,6.74H30l-2.94-5.16-3,5.16H21.74l4.08-6.62-4.08-7.08Z"/><path class="cls-1" d="M49.36,86.05h-2.8v4.26H44.34V76.61h5c3.1,0,4.66,1.54,4.66,4.6a5,5,0,0,1-1.17,3.6A4.57,4.57,0,0,1,49.36,86.05Zm-2.8-1.92h2.78c1.6,0,2.4-1,2.4-2.92a3,3,0,0,0-.58-2,2.38,2.38,0,0,0-1.82-.64H46.56Z"/><path class="cls-1" d="M73.84,90.31H66.16V76.61h2.22V88.33h5.46Z"/><path class="cls-1" d="M94.73,88.85c-.82,1.12-2.27,1.68-4.33,1.68s-3.52-.56-4.34-1.69S84.82,86,84.82,83.53a9.31,9.31,0,0,1,1.25-5.38q1.25-1.75,4.33-1.76c2,0,3.49.59,4.32,1.75A9.47,9.47,0,0,1,96,83.53Q96,87.17,94.73,88.85ZM87.8,87.41a3.46,3.46,0,0,0,5.19,0,8.33,8.33,0,0,0,.67-3.89,8.57,8.57,0,0,0-.69-4,3.29,3.29,0,0,0-5.15,0,8.39,8.39,0,0,0-.7,4A8.11,8.11,0,0,0,87.8,87.41Z"/><path class="cls-1" d="M110.76,85.43v4.88h-2.22V76.61h5.2c3.09,0,4.64,1.46,4.64,4.36a4,4,0,0,1-2.24,4l2.26,5.38H116l-2-4.88ZM116.1,81c0-1.64-.79-2.46-2.36-2.46h-3v5h3a2.14,2.14,0,0,0,1.76-.69A2.83,2.83,0,0,0,116.1,81Z"/><path class="cls-1" d="M130.9,90.31V76.61h8.64v1.94h-6.42v3.88h5.22v1.92h-5.22v4h6.42v2Z"/><path class="cls-1" d="M165,78.59v-2h10v2h-3.86V90.31h-2.24V78.59Z"/><path class="cls-1" d="M195,90.31V84.39h-5.92v5.92h-2.21V76.61h2.21v5.84H195V76.61h2.25v13.7Z"/><path class="cls-1" d="M210.39,90.31V76.61H219v1.94h-6.42v3.88h5.22v1.92h-5.22v4H219v2Z"/><path class="cls-1" d="M260.25,90.31V76.61h3.88l4.16,11.74h.3V76.61h2.22v13.7H267l-4.26-11.76h-.28V90.31Z"/><path class="cls-1" d="M284,90.31V76.61h8.5v1.94h-6.28v4.62h5.22v1.94h-5.22v5.2Z"/><path class="cls-1" d="M304.55,90.31V76.61h2.22v13.7Z"/><path class="cls-1" d="M319.93,90.31V76.61h3.88L328,88.35h.3V76.61h2.22v13.7h-3.8l-4.26-11.76h-.28V90.31Z"/><path class="cls-1" d="M343.65,90.31V76.61h2.22v13.7Z"/><path class="cls-1" d="M357.71,78.59v-2h10v2h-3.86V90.31h-2.24V78.59Z"/><path class="cls-1" d="M384.59,90.31h-2.24V84.67l-4.3-8.06h2.5l2.9,5.88,2.92-5.88h2.48l-4.26,8.06Z"/><path class="cls-1" d="M244.73,71.24V88.88a1.51,1.51,0,0,1-.8,1.42h-.31a1.58,1.58,0,0,0,.89-1.42v-.29h0V71.24Z"/><path class="cls-1" d="M250.5,90.3h-.31a1.52,1.52,0,0,1-.8-1.42V71.24h.23V88.59h0v.29A1.59,1.59,0,0,0,250.5,90.3Z"/><path class="cls-1" d="M248.84,88.88V88.6h0V70.75h-3.56V88.6h0v.28a1.64,1.64,0,0,1-.72,1.42h5A1.64,1.64,0,0,1,248.84,88.88Zm-.65-16.51-1.1,1.1.9.9a.08.08,0,0,1,0,.11l0,0a.09.09,0,0,1-.12,0l-.9-.9h0a.09.09,0,0,1-.12,0v0a.08.08,0,0,1,0-.12h0a.09.09,0,0,1,0-.12l0,0a.09.09,0,0,1,.12,0h0l1.1-1.09a.08.08,0,0,1,.12,0h0A.09.09,0,0,1,248.19,72.37Z"/></g></g></svg>