<svg xmlns="http://www.w3.org/2000/svg" viewBox="0 0 399.03 109.06"><defs><style>.cls-1{font-size:84.14px;font-family:TitilliumWeb-Bold, Titillium Web;font-weight:700;}.cls-1,.cls-2,.cls-5{fill:#ff9800;}.cls-3{letter-spacing:0em;}.cls-4{letter-spacing:-0.01em;}.cls-5{font-size:20px;font-family:TitilliumWeb-SemiBold, Titillium Web;font-weight:600;letter-spacing:0.5em;}.cls-6{letter-spacing:0.49em;}.cls-7{letter-spacing:0.5em;}.cls-8{letter-spacing:0.48em;}.cls-9{fill:none;stroke:#ff9800;stroke-miterlimit:10;stroke-width:0.5px;}</style></defs><title>logo_text_with_tagline</title><g id="Layer_2" data-name="Layer 2"><g id="Layer_2-2" data-name="Layer 2"><text class="cls-1" transform="translate(286.29 70.68)">4 0</text><circle class="cls-2" cx="342.67" cy="63.39" r="7.22"/><text class="cls-1" transform="translate(20.33 70.68)"><tspan class="cls-3">n</tspan><tspan class="cls-4" x="46.19" y="0">v</tspan><tspan x="87.5" y="0">ente</tspan></text><circle class="cls-2" cx="7.85" cy="19.96" r="7.22"/><polygon class="cls-2" points="7.46 72.45 0 58.76 4.32 31.43 10.82 31.43 15.71 58.76 7.46 72.45"/><text class="cls-5" transform="translate(0.42 103.06)">EXP<tspan class="cls-6" x="64.16" y="0">L</tspan><tspan class="cls-7" x="83.42" y="0" xml:space="preserve">ORE THE  NFINIT</tspan><tspan class="cls-8" x="377.56" y="0">Y</tspan></text><path class="cls-9" d="M248.84,101.63v-.28h0V83.5h-3.57v17.85h0v.28a1.67,1.67,0,0,1-.71,1.42h5A1.68,1.68,0,0,1,248.84,101.63Z"/><path class="cls-2" d="M244.73,84v17.64a1.52,1.52,0,0,1-.8,1.42h-.3a1.6,1.6,0,0,0,.88-1.42v-.3h0V84Z"/><path class="cls-2" d="M250.5,103.05h-.31a1.53,1.53,0,0,1-.8-1.42V84h.23v17.34h0v.3A1.6,1.6,0,0,0,250.5,103.05Z"/><rect class="cls-2" x="247.41" y="84.71" width="0.19" height="1.91" rx="0.08" transform="translate(133.07 -149.92) rotate(45)"/><rect class="cls-2" x="247.3" y="85.84" width="0.19" height="1.64" rx="0.08" transform="translate(11.18 200.32) rotate(-45)"/></g></g></svg>