<svg xmlns="http://www.w3.org/2000/svg" viewBox="0 0 977.1 487.86"><defs><style>.cls-1{fill:#3b3933;}</style></defs><title>Rings</title><g id="Layer_2" data-name="Layer 2"><g id="Layer_2-2" data-name="Layer 2"><path class="cls-1" d="M488.55,441.07C245,441.07,47.48,243.6,47.48,0H30c0,253.26,205.3,458.56,458.56,458.56S947.11,253.26,947.11,0H929.62C929.62,243.6,732.15,441.07,488.55,441.07Z"/><path class="cls-1" d="M488.55,414.84C259.44,414.84,73.71,229.11,73.71,0H56.22c0,238.77,193.56,432.33,432.33,432.33S920.88,238.77,920.88,0H903.39C903.39,229.11,717.66,414.84,488.55,414.84Z"/><path class="cls-1" d="M488.55,388.61C273.93,388.61,99.94,214.62,99.94,0H82.45c0,224.28,181.82,406.1,406.1,406.1S894.64,224.28,894.64,0H877.16C877.16,214.62,703.17,388.61,488.55,388.61Z"/><path class="cls-1" d="M488.55,362.38C288.41,362.38,126.17,200.13,126.17,0H108.69c0,209.79,170.07,379.86,379.86,379.86S868.41,209.79,868.41,0H850.92C850.92,200.13,688.68,362.38,488.55,362.38Z"/><path class="cls-1" d="M488.55,336.14C302.9,336.14,152.41,185.65,152.41,0H134.92c0,195.31,158.32,353.63,353.63,353.63S842.18,195.31,842.18,0H824.69C824.69,185.65,674.2,336.14,488.55,336.14Z"/><path class="cls-1" d="M488.55,309.91C317.39,309.91,178.64,171.16,178.64,0H161.15c0,180.82,146.58,327.4,327.4,327.4S816,180.82,816,0H798.46C798.46,171.16,659.71,309.91,488.55,309.91Z"/><path class="cls-1" d="M488.55,283.68c-156.67,0-283.68-127-283.68-283.68H187.38c0,166.33,134.84,301.17,301.17,301.17S789.72,166.33,789.72,0H772.23C772.23,156.67,645.22,283.68,488.55,283.68Z"/><path class="cls-1" d="M957.1,1c-.93,258-210.35,466.83-468.55,466.83S20.93,259,20,1H0c.93,269,219.3,486.83,488.55,486.83S976.17,270.06,977.1,1Z"/></g></g></svg>