<?xml version="1.0" encoding="utf-8"?>
<!-- Generator: Adobe Illustrator 19.0.0, SVG Export Plug-In . SVG Version: 6.00 Build 0)  -->
<svg version="1.1" id="Layer_1" xmlns="http://www.w3.org/2000/svg" xmlns:xlink="http://www.w3.org/1999/xlink" x="0px" y="0px"
	 viewBox="0 0 1261.7 1101" style="enable-background:new 0 0 1261.7 1101;" xml:space="preserve">
<style type="text/css">
	.st0{fill:#FF9800;}
	.st1{fill:#F8981D;}
</style>
<g id="XMLID_1_">
	<path id="XMLID_9_" class="st0" d="M518.4,607.9c-1-0.1-1.9-0.2-2.8-0.2c-0.9,0-1.6,0.3-2.1,0.9c-0.5,0.6-0.7,1.5-0.7,2.7l0.4-0.2
		c0.3-0.1,0.6-0.2,1.1-0.3c0.4-0.1,0.8-0.2,1.2-0.2c2.4,0,3.6,1.1,3.6,3.3c0,1.1-0.3,2-1,2.6c-0.6,0.6-1.6,0.9-2.7,0.9
		c-2.5,0-3.8-1.8-3.8-5.5c0-1.8,0.4-3.2,1.1-4.1c0.7-0.9,1.7-1.3,3-1.3c0.9,0,1.7,0.1,2.5,0.2l0.4,0.1L518.4,607.9z M515.4,611.8
		c-0.4,0-0.8,0.1-1.2,0.2c-0.4,0.1-0.8,0.2-1,0.3l-0.4,0.2c0,1.2,0.2,2.2,0.6,2.9c0.4,0.7,1,1.1,1.8,1.1c0.8,0,1.4-0.2,1.9-0.6
		c0.4-0.4,0.6-1,0.6-1.7s-0.2-1.3-0.6-1.7S516.1,611.8,515.4,611.8z"/>
	<path id="XMLID_12_" class="st0" d="M519.8,606.2v-0.6h4.7v0.6h-2v5.8h-0.7v-5.8H519.8z"/>
	<path id="XMLID_14_" class="st0" d="M531.4,612v-2.9h-3.3v2.9h-0.7v-6.5h0.7v2.9h3.3v-2.9h0.7v6.5H531.4z"/>
	<path id="XMLID_16_" class="st0" d="M535.5,619.3l0.7-3.7h1.3l-1.1,3.7H535.5z"/>
	<path id="XMLID_18_" class="st0" d="M546.8,607.9v-1.1h6.6v1.6l-4.1,9.1l-1.2-0.4l4-8.8v-0.4H546.8z"/>
	<path id="XMLID_25_" class="st0" d="M554.7,606.2v-0.6h4.7v0.6h-2v5.8h-0.7v-5.8H554.7z"/>
	<path id="XMLID_27_" class="st0" d="M566.3,612v-2.9H563v2.9h-0.7v-6.5h0.7v2.9h3.3v-2.9h0.7v6.5H566.3z"/>
	<path id="XMLID_29_" class="st0" d="M580.4,607.1c-1.6,0-2.4,0.6-2.4,1.8c0,0.7,0.2,1.1,0.6,1.4c0.4,0.3,1.1,0.5,2.2,0.8
		c1.1,0.3,1.9,0.6,2.4,1c0.5,0.4,0.7,1.1,0.7,2c0,2.3-1.2,3.4-3.5,3.4c-0.8,0-1.8-0.1-2.9-0.3l-0.6-0.1l0.1-1
		c1.5,0.2,2.6,0.3,3.3,0.3c1.6,0,2.4-0.7,2.4-2.2c0-0.6-0.2-1-0.5-1.3c-0.3-0.3-1-0.5-1.9-0.7c-1.2-0.3-2.1-0.6-2.7-1
		c-0.5-0.4-0.8-1.1-0.8-2.1c0-2,1.2-3,3.6-3c0.8,0,1.7,0.1,2.8,0.2l0.5,0.1l-0.1,1C582.1,607.2,581.1,607.1,580.4,607.1z"/>
	<path id="XMLID_31_" class="st0" d="M589.6,617.3v-11.1h6.7v1.1h-5.5v3.8h4.5v1.1h-4.5v4h5.5v1.1H589.6z"/>
	<path id="XMLID_47_" class="st0" d="M606,613.6h-2.8v3.7h-1.2v-11.1h4c1.2,0,2.1,0.3,2.7,0.9c0.6,0.6,0.9,1.5,0.9,2.7
		C609.5,612.3,608.3,613.6,606,613.6z M603.2,612.5h2.8c1.5,0,2.3-0.9,2.3-2.7c0-0.9-0.2-1.5-0.5-1.9c-0.4-0.4-0.9-0.6-1.7-0.6h-2.8
		V612.5z"/>
	<path id="XMLID_54_" class="st0" d="M613.8,607.3v-1.1h8v1.1h-3.4v10h-1.2v-10H613.8z"/>
	<path id="XMLID_56_" class="st0" d="M626.9,617.3v-11.1h6.7v1.1h-5.5v3.8h4.5v1.1h-4.5v4h5.5v1.1H626.9z"/>
	<path id="XMLID_62_" class="st0" d="M639.3,617.3v-11.1h2.2l3.1,9.4l3.1-9.4h2.2v11.1h-1.2v-9.8h-0.2l-3.2,9.4h-1.4l-3.2-9.4h-0.2
		v9.8H639.3z"/>
	<path id="XMLID_64_" class="st0" d="M656.2,606.2h4c1.1,0,1.9,0.2,2.5,0.7c0.5,0.5,0.8,1.2,0.8,2.1c0,0.7-0.1,1.2-0.4,1.6
		c-0.2,0.4-0.6,0.7-1.1,0.9c1.2,0.4,1.8,1.3,1.8,2.6c0,1.1-0.3,1.9-0.9,2.4c-0.6,0.5-1.4,0.7-2.5,0.7h-4.2V606.2z M660.2,607.3h-2.7
		v3.8h2.8c0.7,0,1.2-0.2,1.5-0.5c0.3-0.3,0.5-0.8,0.5-1.5s-0.2-1.1-0.5-1.4S660.9,607.3,660.2,607.3z M660.3,612.2h-2.9v4h2.9
		c0.7,0,1.3-0.2,1.7-0.5c0.4-0.3,0.6-0.8,0.6-1.6c0-0.4-0.1-0.7-0.2-1c-0.2-0.3-0.4-0.5-0.6-0.6
		C661.3,612.3,660.8,612.2,660.3,612.2z"/>
	<path id="XMLID_82_" class="st0" d="M669.6,617.3v-11.1h6.7v1.1h-5.5v3.8h4.5v1.1h-4.5v4h5.5v1.1H669.6z"/>
	<path id="XMLID_99_" class="st0" d="M683.2,613.1v4.2H682v-11.1h4.1c1.2,0,2.1,0.3,2.6,0.8c0.6,0.5,0.9,1.4,0.9,2.5
		c0,1.7-0.7,2.8-2,3.2l2.1,4.5h-1.4l-2-4.2H683.2z M686.1,612c1.5,0,2.3-0.8,2.3-2.3c0-1.6-0.8-2.3-2.3-2.3h-2.9v4.7H686.1z"/>
	<path id="XMLID_108_" class="st0" d="M694.5,619.3l0.7-3.7h1.3l-1.1,3.7H694.5z"/>
	<path id="XMLID_110_" class="st0" d="M712.4,617.3h-6.8v-1l3.1-3.2c0.5-0.6,0.9-1,1.2-1.3c0.2-0.3,0.5-0.6,0.7-1
		c0.2-0.4,0.3-0.8,0.3-1.2c0-0.7-0.2-1.2-0.6-1.4s-1-0.4-1.7-0.4c-0.7,0-1.5,0.1-2.3,0.3l-0.4,0.1l-0.1-1c1-0.3,2.1-0.4,3.1-0.4
		c1.1,0,1.9,0.2,2.4,0.7c0.5,0.5,0.8,1.2,0.8,2.2c0,0.7-0.2,1.4-0.5,2s-0.9,1.2-1.7,2l-2.8,2.9h5.3V617.3z"/>
	<path id="XMLID_112_" class="st0" d="M721.5,606.6c0.9,0,1.6,0.2,2.1,0.5c1.2,0.7,1.7,2.4,1.7,5.1c0,1.9-0.3,3.3-1,4.1
		c-0.6,0.8-1.6,1.2-2.9,1.2c-1.3,0-2.2-0.4-2.9-1.2c-0.6-0.8-1-2.2-1-4.2s0.3-3.4,1-4.3C719.3,607,720.2,606.6,721.5,606.6z
		 M721.5,607.7c-0.6,0-1.1,0.1-1.4,0.4c-0.8,0.5-1.1,1.9-1.1,4.1c0,1.6,0.2,2.7,0.6,3.3s1.1,0.9,2,0.9c0.9,0,1.5-0.3,2-0.9
		c0.4-0.6,0.6-1.7,0.6-3.4c0-1.6-0.2-2.8-0.6-3.4S722.5,607.7,721.5,607.7z"/>
	<path id="XMLID_115_" class="st0" d="M735.8,606.7v10.6h-1.2v-9.2l-2.7,1.8l-0.6-0.9l3.4-2.2H735.8z"/>
	<path id="XMLID_117_" class="st0" d="M746,616.4c1.9,0,2.9-1.2,2.9-3.7c-1.1,0.4-2,0.6-2.8,0.6c-2.3,0-3.5-1.1-3.5-3.2
		c0-1.1,0.3-1.9,1-2.6c0.7-0.6,1.6-0.9,2.7-0.9c1.3,0,2.2,0.5,2.9,1.4c0.6,1,0.9,2.4,0.9,4.2s-0.4,3.2-1.1,4
		c-0.7,0.8-1.8,1.2-3.1,1.2c-0.8,0-1.6-0.1-2.5-0.2l-0.4-0.1l0.1-1C744.1,616.3,745.1,616.4,746,616.4z M746.2,612.2
		c0.7,0,1.4-0.1,2.3-0.4l0.4-0.1c0-2.6-0.9-4-2.6-4c-0.7,0-1.3,0.2-1.8,0.6c-0.4,0.4-0.6,1-0.6,1.8
		C744,611.5,744.7,612.2,746.2,612.2z"/>
</g>
<g id="XMLID_2_">
	<g id="XMLID_225_">
		<g id="XMLID_248_">
			<path id="XMLID_106_" class="st1" d="M745.6,550.1v-9.2H722v-8.8l13.7-37.5h12.8l-14.9,36.3h11.9v-15.6h11.6v15.6h5.3v10.1h-5.3
				v9.2H745.6z"/>
			<path id="XMLID_103_" class="st1" d="M791.7,500.5c3.6-4.6,9-6.9,16.1-6.9s12.5,2.3,16.1,6.9c3.6,4.6,5.4,12,5.4,22.2
				s-1.8,17.5-5.4,21.9s-9,6.6-16.2,6.6s-12.6-2.2-16.2-6.6s-5.4-11.7-5.4-21.9S788.1,505.1,791.7,500.5z M817.4,522.4
				c0-6.9-0.7-11.8-2.2-14.6c-1.5-2.8-3.9-4.2-7.4-4.2c-3.5,0-5.9,1.4-7.4,4.2c-1.5,2.8-2.2,7.7-2.2,14.6c0,6.9,0.8,11.7,2.3,14.5
				c1.5,2.7,4,4.1,7.4,4.1s5.9-1.4,7.3-4.1C816.7,534.2,817.4,529.3,817.4,522.4z"/>
		</g>
		<g id="XMLID_42_">
			<circle id="XMLID_100_" class="st1" cx="775" cy="542.8" r="7.2"/>
		</g>
		<g id="XMLID_210_">
			<path id="XMLID_97_" class="st1" d="M469.2,550.1h-11.3V508h11.2v2.4c3.8-2.2,7.3-3.4,10.5-3.4c5.6,0,9.5,1.7,11.6,5
				c2.1,3.3,3.2,8.4,3.2,15.3v22.8h-11.3v-22.5c0-3.6-0.4-6.2-1.3-8c-0.8-1.7-2.5-2.6-5-2.6c-2.3,0-4.5,0.4-6.6,1.2l-1,0.3V550.1z"
				/>
			<path id="XMLID_95_" class="st1" d="M500.1,508h11.8l6.7,32.5h2.4l7.1-32.5h11.4l-10.1,42.1h-19.2L500.1,508z"/>
			<path id="XMLID_92_" class="st1" d="M556.7,539.5c1.3,1.2,3.2,1.7,5.7,1.7c5.2,0,9.9-0.2,14-0.5l2.4-0.3l0.2,8.3
				c-6.5,1.6-12.3,2.4-17.5,2.4c-6.3,0-10.9-1.7-13.8-5c-2.9-3.4-4.3-8.8-4.3-16.4c0-15.1,6.2-22.6,18.6-22.6
				c12.2,0,18.3,6.3,18.3,19l-0.8,7.8h-24.7C554.7,536.5,555.4,538.3,556.7,539.5z M569.1,525.3c0-3.4-0.5-5.7-1.6-7
				c-1.1-1.3-2.9-2-5.6-2s-4.5,0.7-5.6,2.1c-1.1,1.4-1.7,3.7-1.7,6.9H569.1z"/>
			<path id="XMLID_90_" class="st1" d="M599.6,550.1h-11.3V508h11.2v2.4c3.8-2.2,7.3-3.4,10.5-3.4c5.6,0,9.5,1.7,11.6,5
				c2.1,3.3,3.2,8.4,3.2,15.3v22.8h-11.3v-22.5c0-3.6-0.4-6.2-1.3-8c-0.8-1.7-2.5-2.6-5-2.6c-2.3,0-4.5,0.4-6.6,1.2l-1,0.3V550.1z"
				/>
			<path id="XMLID_88_" class="st1" d="M658.1,517.6h-10.3v17.2c0,1.7,0,2.9,0.1,3.6c0.1,0.7,0.4,1.3,0.9,1.8
				c0.5,0.5,1.4,0.8,2.5,0.8l6.4-0.2l0.5,9c-3.8,0.8-6.6,1.3-8.6,1.3c-5,0-8.5-1.1-10.3-3.4c-1.9-2.3-2.8-6.5-2.8-12.6v-17.5h-5V508
				h5v-11.7h11.3V508h10.3V517.6z"/>
			<path id="XMLID_85_" class="st1" d="M676.8,539.5c1.3,1.2,3.2,1.7,5.7,1.7c5.2,0,9.9-0.2,14-0.5l2.4-0.3l0.2,8.3
				c-6.5,1.6-12.3,2.4-17.5,2.4c-6.3,0-10.9-1.7-13.8-5c-2.9-3.4-4.3-8.8-4.3-16.4c0-15.1,6.2-22.6,18.6-22.6
				c12.2,0,18.3,6.3,18.3,19l-0.8,7.8h-24.7C674.8,536.5,675.4,538.3,676.8,539.5z M689.2,525.3c0-3.4-0.5-5.7-1.6-7
				c-1.1-1.3-2.9-2-5.6-2s-4.5,0.7-5.6,2.1c-1.1,1.4-1.7,3.7-1.7,6.9H689.2z"/>
		</g>
		<g id="XMLID_204_">
			<circle id="XMLID_83_" class="st1" cx="440.2" cy="499.4" r="7.2"/>
		</g>
		<g id="XMLID_203_">
			<polygon id="XMLID_81_" class="st1" points="439.8,551.9 432.3,538.2 436.7,510.9 443.2,510.9 448.1,538.2 			"/>
		</g>
	</g>
	<g id="XMLID_3_">
		<g id="XMLID_201_">
			<g id="XMLID_202_">
				<path id="XMLID_77_" class="st1" d="M434.3,582.5v-13.7h8.6v1.9h-6.4v3.9h5.2v1.9h-5.2v4h6.4v2H434.3z"/>
				<path id="XMLID_41_" class="st1" d="M456.6,568.8l2.9,5.4l3-5.4h2.3l-4.1,7l4.1,6.7h-2.5l-2.9-5.2l-3,5.2h-2.3l4.1-6.6l-4.1-7.1
					H456.6z"/>
				<path id="XMLID_72_" class="st1" d="M481.7,578.2h-2.8v4.3h-2.2v-13.7h5c3.1,0,4.7,1.5,4.7,4.6c0,1.6-0.4,2.8-1.2,3.6
					C484.4,577.8,483.2,578.2,481.7,578.2z M478.9,576.3h2.8c1.6,0,2.4-1,2.4-2.9c0-0.9-0.2-1.6-0.6-2c-0.4-0.4-1-0.6-1.8-0.6h-2.8
					V576.3z"/>
				<path id="XMLID_70_" class="st1" d="M506.2,582.5h-7.7v-13.7h2.2v11.7h5.5V582.5z"/>
				<path id="XMLID_67_" class="st1" d="M527.1,581c-0.8,1.1-2.3,1.7-4.3,1.7c-2.1,0-3.5-0.6-4.3-1.7c-0.8-1.1-1.2-2.9-1.2-5.3
					c0-2.4,0.4-4.2,1.2-5.4c0.8-1.2,2.3-1.8,4.3-1.8c2.1,0,3.5,0.6,4.3,1.8s1.2,3,1.2,5.4S527.9,579.9,527.1,581z M520.1,579.6
					c0.5,0.8,1.3,1.2,2.6,1.2c1.3,0,2.1-0.4,2.6-1.2c0.4-0.8,0.7-2.1,0.7-3.9c0-1.8-0.2-3.1-0.7-4c-0.5-0.8-1.3-1.2-2.6-1.2
					c-1.3,0-2.1,0.4-2.6,1.2c-0.5,0.8-0.7,2.1-0.7,4S519.7,578.8,520.1,579.6z"/>
				<path id="XMLID_61_" class="st1" d="M543.1,577.6v4.9h-2.2v-13.7h5.2c3.1,0,4.6,1.5,4.6,4.4c0,1.9-0.7,3.3-2.2,4l2.3,5.4h-2.4
					l-2-4.9H543.1z M548.4,573.2c0-1.6-0.8-2.5-2.4-2.5h-3v5h3c0.8,0,1.4-0.2,1.8-0.7S548.4,573.9,548.4,573.2z"/>
				<path id="XMLID_59_" class="st1" d="M563.2,582.5v-13.7h8.6v1.9h-6.4v3.9h5.2v1.9h-5.2v4h6.4v2H563.2z"/>
				<path id="XMLID_53_" class="st1" d="M597.4,570.8v-2h10v2h-3.9v11.7h-2.2v-11.7H597.4z"/>
				<path id="XMLID_51_" class="st1" d="M627.4,582.5v-5.9h-5.9v5.9h-2.2v-13.7h2.2v5.8h5.9v-5.8h2.2v13.7H627.4z"/>
				<path id="XMLID_46_" class="st1" d="M642.7,582.5v-13.7h8.6v1.9H645v3.9h5.2v1.9H645v4h6.4v2H642.7z"/>
				<path id="XMLID_44_" class="st1" d="M692.6,582.5v-13.7h3.9l4.2,11.7h0.3v-11.7h2.2v13.7h-3.8l-4.3-11.8h-0.3v11.8H692.6z"/>
				<path id="XMLID_40_" class="st1" d="M716.3,582.5v-13.7h8.5v1.9h-6.3v4.6h5.2v1.9h-5.2v5.2H716.3z"/>
				<path id="XMLID_38_" class="st1" d="M736.9,582.5v-13.7h2.2v13.7H736.9z"/>
				<path id="XMLID_36_" class="st1" d="M752.3,582.5v-13.7h3.9l4.2,11.7h0.3v-11.7h2.2v13.7H759l-4.3-11.8h-0.3v11.8H752.3z"/>
				<path id="XMLID_32_" class="st1" d="M776,582.5v-13.7h2.2v13.7H776z"/>
				<path id="XMLID_23_" class="st1" d="M790.1,570.8v-2h10v2h-3.9v11.7H794v-11.7H790.1z"/>
				<path id="XMLID_20_" class="st1" d="M816.9,582.5h-2.2v-5.6l-4.3-8.1h2.5l2.9,5.9l2.9-5.9h2.5l-4.3,8.1V582.5z"/>
			</g>
		</g>
		<g id="XMLID_33_">
			<g id="XMLID_7_">
				<g id="XMLID_19_">
					<path id="XMLID_241_" class="st1" d="M677.1,563.4v17.6c0,0.6-0.3,1.2-0.8,1.4H676c0.5-0.3,0.9-0.8,0.9-1.4v-0.3h0v-17.3H677.1
						z"/>
					<path id="XMLID_239_" class="st1" d="M682.8,582.5h-0.3c-0.5-0.3-0.8-0.8-0.8-1.4v-17.6h0.2v17.3h0v0.3
						C682,581.7,682.3,582.2,682.8,582.5z"/>
				</g>
			</g>
			<path id="XMLID_4_" class="st1" d="M681.2,581.1v-0.3h0v-17.9h-3.6v17.9h0v0.3c0,0.6-0.3,1.2-0.7,1.4h2.5v0h2.5
				C681.5,582.2,681.2,581.7,681.2,581.1z M680.5,564.6l-1.1,1.1l0.9,0.9c0,0,0,0.1,0,0.1l0,0c0,0-0.1,0-0.1,0l-0.9-0.9l0,0
				c0,0-0.1,0-0.1,0l0,0c0,0,0-0.1,0-0.1l0,0l0,0c0,0,0-0.1,0-0.1l0,0c0,0,0.1,0,0.1,0l0,0l1.1-1.1c0,0,0.1,0,0.1,0l0,0
				C680.6,564.5,680.6,564.5,680.5,564.6z"/>
		</g>
	</g>
</g>
</svg>
