<?xml version="1.0" encoding="utf-8"?>
<!-- Generator: Adobe Illustrator 19.0.0, SVG Export Plug-In . SVG Version: 6.00 Build 0)  -->
<svg version="1.1" id="Layer_1" xmlns="http://www.w3.org/2000/svg" xmlns:xlink="http://www.w3.org/1999/xlink" x="0px" y="0px"
	 viewBox="0 0 1261.7 1101" style="enable-background:new 0 0 1261.7 1101;" xml:space="preserve">
<style type="text/css">
	.st0{fill:#FF9800;}
</style>
<g id="XMLID_1168_">
	<g id="XMLID_2_">
		<path id="XMLID_3_" class="st0" d="M459.1,441.1H499v6.1h-16.6v41.7h-6.9v-41.7h-16.4V441.1z"/>
		<path id="XMLID_5_" class="st0" d="M558.6,441.2h6.8v47.7h-6.8v-20.8h-26.8v20.8h-6.8v-47.7h6.8v20.6h26.8V441.2z"/>
		<path id="XMLID_7_" class="st0" d="M595.4,441.2h6.8v47.7h-6.8V441.2z"/>
		<path id="XMLID_9_" class="st0" d="M632.5,488.9v-47.7h12c4.8,0,8.7,1.2,11.5,3.6s4.3,5.6,4.3,9.7c0,2.8-0.7,5.2-2.1,7.2
			c-1.4,2-3.4,3.5-6,4.5c1.5,1,3,2.4,4.5,4.1c1.5,1.7,3.5,4.8,6.2,9.1c1.7,2.7,3,4.8,4,6.1l2.5,3.4h-8.1l-2.1-3.1
			c-0.1-0.1-0.2-0.3-0.4-0.6l-1.3-1.9l-2.1-3.5l-2.3-3.7c-1.4-2-2.7-3.5-3.9-4.7s-2.2-2-3.2-2.5s-2.5-0.8-4.8-0.8h-1.8v20.8H632.5z
			 M641.4,447h-2.1v15.1h2.6c3.5,0,5.8-0.3,7.1-0.9c1.3-0.6,2.3-1.5,3-2.7s1.1-2.6,1.1-4.1c0-1.5-0.4-2.9-1.2-4.1
			c-0.8-1.2-1.9-2.1-3.4-2.6C647.2,447.2,644.8,447,641.4,447z"/>
		<path id="XMLID_12_" class="st0" d="M705.9,468.9l-5.2-3.2c-3.3-2-5.6-3.9-7-5.9c-1.4-1.9-2.1-4.1-2.1-6.6c0-3.8,1.3-6.8,3.9-9.2
			c2.6-2.3,6-3.5,10.2-3.5c4,0,7.6,1.1,11,3.4v7.8c-3.4-3.3-7.1-5-11.1-5c-2.2,0-4.1,0.5-5.5,1.5s-2.2,2.4-2.2,4
			c0,1.4,0.5,2.8,1.6,4c1.1,1.2,2.8,2.6,5.1,3.9l5.2,3.1c5.8,3.5,8.7,7.9,8.7,13.3c0,3.8-1.3,6.9-3.8,9.3s-5.9,3.6-10,3.6
			c-4.7,0-9-1.4-12.9-4.3v-8.7c3.7,4.7,8,7,12.8,7c2.1,0,3.9-0.6,5.3-1.8c1.4-1.2,2.1-2.7,2.1-4.5
			C712.2,474.3,710.1,471.5,705.9,468.9z"/>
		<path id="XMLID_14_" class="st0" d="M732.7,441.1h39.9v6.1H756v41.7h-6.9v-41.7h-16.4V441.1z"/>
		<path id="XMLID_16_" class="st0" d="M535.4,525.2h25.5v6.1h-18.6v13.3h18.6v6.1h-18.6v22.3h-6.8V525.2z"/>
		<path id="XMLID_18_" class="st0" d="M611,524.5c7.4,0,13.5,2.3,18.4,7c4.9,4.7,7.4,10.5,7.4,17.6s-2.5,12.9-7.4,17.5
			s-11.2,6.9-18.7,6.9c-7.2,0-13.2-2.3-18-6.9s-7.2-10.4-7.2-17.3c0-7.1,2.4-13,7.2-17.7C597.5,526.8,603.6,524.5,611,524.5z
			 M611.3,531c-5.5,0-10,1.7-13.5,5.1c-3.5,3.4-5.3,7.8-5.3,13.1c0,5.1,1.8,9.4,5.3,12.9s7.9,5.1,13.2,5.1c5.3,0,9.8-1.7,13.3-5.2
			c3.6-3.5,5.3-7.8,5.3-13c0-5.1-1.8-9.3-5.3-12.8C620.9,532.7,616.5,531,611.3,531z"/>
		<path id="XMLID_21_" class="st0" d="M664.9,572.9v-47.7h12c4.8,0,8.7,1.2,11.5,3.6s4.3,5.6,4.3,9.7c0,2.8-0.7,5.2-2.1,7.2
			c-1.4,2-3.4,3.5-6,4.5c1.5,1,3,2.4,4.5,4.1c1.5,1.7,3.5,4.8,6.2,9.1c1.7,2.7,3,4.8,4,6.1l2.5,3.4h-8.1l-2.1-3.1
			c-0.1-0.1-0.2-0.3-0.4-0.6l-1.3-1.9l-2.1-3.5l-2.3-3.7c-1.4-2-2.7-3.5-3.9-4.7s-2.2-2-3.2-2.5c-0.9-0.5-2.5-0.8-4.8-0.8h-1.8v20.8
			H664.9z M673.8,531h-2.1v15.1h2.6c3.5,0,5.8-0.3,7.1-0.9c1.3-0.6,2.3-1.5,3-2.7s1.1-2.6,1.1-4.1c0-1.5-0.4-2.9-1.2-4.1
			c-0.8-1.2-1.9-2.1-3.4-2.6C679.5,531.2,677.1,531,673.8,531z"/>
		<path id="XMLID_24_" class="st0" d="M477.6,609.1h39.9v6.1h-16.6v41.7h-6.9v-41.7h-16.4V609.1z"/>
		<path id="XMLID_26_" class="st0" d="M543.4,609.2h27.1v6.1h-20.2v14.6h19.6v6.1h-19.6v14.8h20.9v6.1h-27.7V609.2z"/>
		<path id="XMLID_28_" class="st0" d="M639,645.9v7.5c-5,2.7-10.8,4.1-17.4,4.1c-5.3,0-9.9-1.1-13.6-3.2c-3.7-2.1-6.7-5.1-8.8-8.9
			c-2.2-3.8-3.2-7.8-3.2-12.2c0-6.9,2.5-12.8,7.4-17.5c5-4.7,11.1-7.1,18.3-7.1c5,0,10.6,1.3,16.7,3.9v7.3c-5.6-3.2-11-4.8-16.4-4.8
			c-5.5,0-10,1.7-13.6,5.2c-3.6,3.5-5.4,7.8-5.4,13c0,5.2,1.8,9.5,5.3,12.9c3.6,3.4,8.1,5.1,13.6,5.1
			C627.8,651.2,633.4,649.4,639,645.9z"/>
		<path id="XMLID_30_" class="st0" d="M700.5,609.2h6.8v47.7h-6.8v-20.8h-26.8v20.8h-6.8v-47.7h6.8v20.6h26.8V609.2z"/>
		<path id="XMLID_32_" class="st0" d="M736.6,616l4.5-7.5c3.7,0.1,6.5,1.2,8.4,3.1c1.9,1.9,2.9,4.3,2.9,7.1c0,1.8-0.4,3.8-1.1,5.8
			c-0.7,2-2.4,5-5,9c-3,4.6-4.5,7.9-4.5,9.8c0,0.3,0.1,0.8,0.2,1.4c-1.5-0.7-2.7-1.6-3.3-2.5s-1-2.3-1-4c0-1.6,0.3-3,0.8-4.3
			c0.5-1.3,1.8-3.5,3.9-6.7c2-3.1,3-5.7,3-7.7c0-1.4-0.4-2.5-1.3-3.4s-2.1-1.2-3.5-1.2C739.4,614.8,738.1,615.2,736.6,616z
			 M747,653.4c0,1.2-0.4,2.1-1.2,2.9c-0.8,0.8-1.8,1.2-3.1,1.2c-1.1,0-2.1-0.4-2.9-1.2c-0.8-0.8-1.2-1.7-1.2-2.9
			c0-1.2,0.4-2.2,1.2-3c0.8-0.8,1.8-1.3,2.9-1.3c1.2,0,2.2,0.4,3,1.2S747,652.2,747,653.4z"/>
	</g>
</g>
</svg>
