<svg xmlns="http://www.w3.org/2000/svg" viewBox="0 0 278.99 453.17"><defs><style>.cls-1{fill:#ff9800;}</style></defs><title>Logo_bulb</title><g id="Layer_2" data-name="Layer 2"><g id="Layer_2-2" data-name="Layer 2"><path class="cls-1" d="M82.81,431.89l49.43,21.28V351.84l-55,.4,3.7,13.46a138.24,138.24,0,0,1,2.54,62.82Z"/><path class="cls-1" d="M201.67,352.24l-55-.4V453.17l49.44-21.28-.66-3.37A138.1,138.1,0,0,1,198,365.7Z"/><path class="cls-1" d="M139.72,113.76a26.45,26.45,0,1,0,26.45,26.44A26.47,26.47,0,0,0,139.72,113.76Zm0,40.94a14.5,14.5,0,1,1,14.5-14.5A14.5,14.5,0,0,1,139.72,154.7Z"/><path class="cls-1" d="M130.23.3C62.16,4.7,6.47,59.09.55,127a138.62,138.62,0,0,0,29.3,98.5c5.79,7.35,11.47,14.93,17,22.67,18.43,25.87,28.3,89.9,28.3,89.9h43.67l-39-157.83,18.66,7.08a115.43,115.43,0,0,0,82.8-.1l18.27-7L160,338.1h43.1s9.25-61.29,27-86.68c6.39-9.16,12.87-18,19.09-25.87A139.35,139.35,0,0,0,130.23.3Zm9.49,180.76a40.86,40.86,0,1,1,40.86-40.86A40.86,40.86,0,0,1,139.72,181.06Zm62.48-56.28a67.32,67.32,0,0,0-125.15.32l-13.41-5.28a81.74,81.74,0,0,1,152-.39Z"/><path class="cls-1" d="M139.76,209.4a129.9,129.9,0,0,1-39.4-6.14l30.18,122.22h17.74l30.63-122.14A129.81,129.81,0,0,1,139.76,209.4ZM139,291l-13.18-24.17,7.62-48.23h11.48l8.63,48.23Z"/></g></g></svg>