<?xml version="1.0" encoding="utf-8"?>
<!-- Generator: Adobe Illustrator 19.0.0, SVG Export Plug-In . SVG Version: 6.00 Build 0)  -->
<svg version="1.1" id="Layer_1" xmlns="http://www.w3.org/2000/svg" xmlns:xlink="http://www.w3.org/1999/xlink" x="0px" y="0px"
	 viewBox="0 0 399 153.9" style="enable-background:new 0 0 399 153.9;" xml:space="preserve">
<style type="text/css">
	.st0{fill:#F89921;}
</style>
<g id="XMLID_8_">
	<g id="XMLID_225_">
		<g id="XMLID_248_">
			<path id="XMLID_106_" class="st0" d="M314.2,58.9v-9.2h-23.6v-8.8l13.7-37.5h12.8l-14.9,36.3h11.9V24.1h11.6v15.6h5.3v10.1h-5.3
				v9.2H314.2z"/>
			<path id="XMLID_103_" class="st0" d="M360.4,9.3c3.6-4.6,9-6.9,16.1-6.9s12.5,2.3,16.1,6.9c3.6,4.6,5.4,12,5.4,22.2
				s-1.8,17.5-5.4,21.9s-9,6.6-16.2,6.6s-12.6-2.2-16.2-6.6c-3.6-4.4-5.4-11.7-5.4-21.9S356.7,13.9,360.4,9.3z M386.1,31.2
				c0-6.9-0.7-11.8-2.2-14.6c-1.5-2.8-3.9-4.2-7.4-4.2c-3.5,0-5.9,1.4-7.4,4.2c-1.5,2.8-2.2,7.7-2.2,14.6c0,6.9,0.8,11.7,2.3,14.5
				c1.5,2.7,4,4.1,7.4,4.1s5.9-1.4,7.3-4.1C385.3,43,386.1,38.1,386.1,31.2z"/>
		</g>
		<g id="XMLID_213_">
			<circle id="XMLID_100_" class="st0" cx="343.7" cy="51.6" r="7.2"/>
		</g>
		<g id="XMLID_210_">
			<path id="XMLID_97_" class="st0" d="M37.8,58.9H26.5V16.9h11.2v2.4c3.8-2.2,7.3-3.4,10.5-3.4c5.6,0,9.5,1.7,11.6,5
				C62,24.1,63,29.2,63,36.1v22.8H51.8V36.5c0-3.6-0.4-6.2-1.3-8c-0.8-1.7-2.5-2.6-5-2.6c-2.3,0-4.5,0.4-6.6,1.2l-1,0.3V58.9z"/>
			<path id="XMLID_95_" class="st0" d="M68.8,16.9h11.8l6.7,32.5h2.4l7.1-32.5h11.4L98.1,58.9H78.9L68.8,16.9z"/>
			<path id="XMLID_92_" class="st0" d="M125.4,48.3c1.3,1.2,3.2,1.7,5.7,1.7c5.2,0,9.9-0.2,14-0.5l2.4-0.3l0.2,8.3
				c-6.5,1.6-12.3,2.4-17.5,2.4c-6.3,0-10.9-1.7-13.8-5c-2.9-3.4-4.3-8.8-4.3-16.4c0-15.1,6.2-22.6,18.6-22.6
				c12.2,0,18.3,6.3,18.3,19l-0.8,7.8h-24.7C123.3,45.3,124,47.1,125.4,48.3z M137.8,34.1c0-3.4-0.5-5.7-1.6-7c-1.1-1.3-2.9-2-5.6-2
				s-4.5,0.7-5.6,2.1c-1.1,1.4-1.7,3.7-1.7,6.9H137.8z"/>
			<path id="XMLID_90_" class="st0" d="M168.2,58.9h-11.3V16.9h11.2v2.4c3.8-2.2,7.3-3.4,10.5-3.4c5.6,0,9.5,1.7,11.6,5
				c2.1,3.3,3.2,8.4,3.2,15.3v22.8h-11.3V36.5c0-3.6-0.4-6.2-1.3-8c-0.8-1.7-2.5-2.6-5-2.6c-2.3,0-4.5,0.4-6.6,1.2l-1,0.3V58.9z"/>
			<path id="XMLID_88_" class="st0" d="M226.8,26.5h-10.3v17.2c0,1.7,0,2.9,0.1,3.6c0.1,0.7,0.4,1.3,0.9,1.8
				c0.5,0.5,1.4,0.8,2.5,0.8l6.4-0.2l0.5,9c-3.8,0.8-6.6,1.3-8.6,1.3c-5,0-8.5-1.1-10.3-3.4c-1.9-2.3-2.8-6.5-2.8-12.6V26.5h-5v-9.6
				h5V5.2h11.3v11.7h10.3V26.5z"/>
			<path id="XMLID_85_" class="st0" d="M245.4,48.3c1.3,1.2,3.2,1.7,5.7,1.7c5.2,0,9.9-0.2,14-0.5l2.4-0.3l0.2,8.3
				c-6.5,1.6-12.3,2.4-17.5,2.4c-6.3,0-10.9-1.7-13.8-5c-2.9-3.4-4.3-8.8-4.3-16.4c0-15.1,6.2-22.6,18.6-22.6
				c12.2,0,18.3,6.3,18.3,19l-0.8,7.8h-24.7C243.4,45.3,244.1,47.1,245.4,48.3z M257.8,34.1c0-3.4-0.5-5.7-1.6-7
				c-1.1-1.3-2.9-2-5.6-2s-4.5,0.7-5.6,2.1c-1.1,1.4-1.7,3.7-1.7,6.9H257.8z"/>
		</g>
		<g id="XMLID_204_">
			<circle id="XMLID_83_" class="st0" cx="8.8" cy="8.2" r="7.2"/>
		</g>
		<g id="XMLID_203_">
			<polygon id="XMLID_81_" class="st0" points="8.5,60.7 1,47 5.3,19.7 11.8,19.7 16.7,47 			"/>
		</g>
	</g>
	<g id="XMLID_3_">
		<g id="XMLID_201_">
			<g id="XMLID_202_">
				<path id="XMLID_77_" class="st0" d="M3,91.3V77.6h8.6v1.9H5.2v3.9h5.2v1.9H5.2v4h6.4v2H3z"/>
				<path id="XMLID_75_" class="st0" d="M25.2,77.6l2.9,5.4l3-5.4h2.3l-4.1,7l4.1,6.7H31l-2.9-5.2l-3,5.2h-2.3l4.1-6.6l-4.1-7.1
					H25.2z"/>
				<path id="XMLID_72_" class="st0" d="M50.3,87.1h-2.8v4.3h-2.2V77.6h5c3.1,0,4.7,1.5,4.7,4.6c0,1.6-0.4,2.8-1.2,3.6
					C53.1,86.6,51.9,87.1,50.3,87.1z M47.5,85.1h2.8c1.6,0,2.4-1,2.4-2.9c0-0.9-0.2-1.6-0.6-2c-0.4-0.4-1-0.6-1.8-0.6h-2.8V85.1z"/>
				<path id="XMLID_70_" class="st0" d="M74.8,91.3h-7.7V77.6h2.2v11.7h5.5V91.3z"/>
				<path id="XMLID_67_" class="st0" d="M95.7,89.9c-0.8,1.1-2.3,1.7-4.3,1.7c-2.1,0-3.5-0.6-4.3-1.7c-0.8-1.1-1.2-2.9-1.2-5.3
					c0-2.4,0.4-4.2,1.2-5.4c0.8-1.2,2.3-1.8,4.3-1.8c2.1,0,3.5,0.6,4.3,1.8s1.2,3,1.2,5.4S96.5,88.7,95.7,89.9z M88.8,88.4
					c0.5,0.8,1.3,1.2,2.6,1.2c1.3,0,2.1-0.4,2.6-1.2c0.4-0.8,0.7-2.1,0.7-3.9c0-1.8-0.2-3.1-0.7-4c-0.5-0.8-1.3-1.2-2.6-1.2
					c-1.3,0-2.1,0.4-2.6,1.2c-0.5,0.8-0.7,2.1-0.7,4S88.3,87.6,88.8,88.4z"/>
				<path id="XMLID_61_" class="st0" d="M111.7,86.4v4.9h-2.2V77.6h5.2c3.1,0,4.6,1.5,4.6,4.4c0,1.9-0.7,3.3-2.2,4l2.3,5.4h-2.4
					l-2-4.9H111.7z M117.1,82c0-1.6-0.8-2.5-2.4-2.5h-3v5h3c0.8,0,1.4-0.2,1.8-0.7S117.1,82.8,117.1,82z"/>
				<path id="XMLID_59_" class="st0" d="M131.9,91.3V77.6h8.6v1.9h-6.4v3.9h5.2v1.9h-5.2v4h6.4v2H131.9z"/>
				<path id="XMLID_53_" class="st0" d="M166,79.6v-2h10v2h-3.9v11.7h-2.2V79.6H166z"/>
				<path id="XMLID_51_" class="st0" d="M196,91.3v-5.9h-5.9v5.9h-2.2V77.6h2.2v5.8h5.9v-5.8h2.2v13.7H196z"/>
				<path id="XMLID_46_" class="st0" d="M211.4,91.3V77.6h8.6v1.9h-6.4v3.9h5.2v1.9h-5.2v4h6.4v2H211.4z"/>
				<path id="XMLID_44_" class="st0" d="M261.2,91.3V77.6h3.9l4.2,11.7h0.3V77.6h2.2v13.7H268l-4.3-11.8h-0.3v11.8H261.2z"/>
				<path id="XMLID_39_" class="st0" d="M285,91.3V77.6h8.5v1.9h-6.3v4.6h5.2v1.9h-5.2v5.2H285z"/>
				<path id="XMLID_37_" class="st0" d="M305.5,91.3V77.6h2.2v13.7H305.5z"/>
				<path id="XMLID_31_" class="st0" d="M320.9,91.3V77.6h3.9l4.2,11.7h0.3V77.6h2.2v13.7h-3.8l-4.3-11.8h-0.3v11.8H320.9z"/>
				<path id="XMLID_25_" class="st0" d="M344.6,91.3V77.6h2.2v13.7H344.6z"/>
				<path id="XMLID_23_" class="st0" d="M358.7,79.6v-2h10v2h-3.9v11.7h-2.2V79.6H358.7z"/>
				<path id="XMLID_20_" class="st0" d="M385.6,91.3h-2.2v-5.6l-4.3-8.1h2.5l2.9,5.9l2.9-5.9h2.5l-4.3,8.1V91.3z"/>
			</g>
		</g>
		<g id="XMLID_33_">
			<g id="XMLID_214_">
				<g id="XMLID_221_">
					<path id="XMLID_241_" class="st0" d="M245.7,72.2v17.6c0,0.6-0.3,1.2-0.8,1.4h-0.3c0.5-0.3,0.9-0.8,0.9-1.4v-0.3h0V72.2H245.7z
						"/>
					<path id="XMLID_239_" class="st0" d="M251.5,91.3h-0.3c-0.5-0.3-0.8-0.8-0.8-1.4V72.2h0.2v17.3h0v0.3
						C250.6,90.5,251,91,251.5,91.3z"/>
				</g>
			</g>
			<path id="XMLID_11_" class="st0" d="M249.8,89.9v-0.3h0V71.7h-3.6v17.9h0v0.3c0,0.6-0.3,1.2-0.7,1.4h2.5v0h2.5
				C250.1,91,249.8,90.5,249.8,89.9z M249.2,73.4l-1.1,1.1l0.9,0.9c0,0,0,0.1,0,0.1l0,0c0,0-0.1,0-0.1,0l-0.9-0.9l0,0
				c0,0-0.1,0-0.1,0l0,0c0,0,0-0.1,0-0.1l0,0l0,0c0,0,0-0.1,0-0.1l0,0c0,0,0.1,0,0.1,0l0,0l1.1-1.1c0,0,0.1,0,0.1,0l0,0
				C249.2,73.3,249.2,73.3,249.2,73.4z"/>
		</g>
	</g>
</g>
<g id="XMLID_1_">
	<path id="XMLID_4_" class="st0" d="M58,121.5v11.9h-1.4v-10.3l-3.1,2l-0.6-1l3.8-2.5H58z"/>
	<path id="XMLID_6_" class="st0" d="M62.4,121.8c1.1-0.3,2.3-0.5,3.6-0.5s2.2,0.2,2.8,0.7c0.6,0.5,0.9,1.3,0.9,2.4
		c0,0.6-0.1,1-0.2,1.2s-0.3,0.4-0.4,0.6s-0.2,0.3-0.4,0.4c-0.3,0.2-0.5,0.3-0.6,0.4l-0.2,0.1c0.7,0.3,1.2,0.6,1.5,1
		c0.3,0.4,0.5,1,0.5,1.9c0,1.2-0.3,2.1-0.9,2.7s-1.6,0.9-2.9,0.9c-1.1,0-2.2-0.1-3.3-0.4l-0.6-0.1l0.1-1.1c1.3,0.3,2.5,0.4,3.6,0.4
		c1.7,0,2.6-0.8,2.6-2.3c0-1.4-0.8-2.2-2.4-2.2h-2.4v-1.2h2.4c0.5,0,1-0.2,1.5-0.6c0.5-0.4,0.7-0.9,0.7-1.6s-0.2-1.1-0.6-1.4
		s-1-0.4-1.9-0.4c-1,0-1.9,0.1-2.8,0.3l-0.5,0.1L62.4,121.8z"/>
	<path id="XMLID_9_" class="st0" d="M75.2,120.9v-0.7h5.2v0.7h-2.2v6.5h-0.8v-6.5H75.2z"/>
	<path id="XMLID_14_" class="st0" d="M88.3,127.4v-3.3h-3.7v3.3h-0.8v-7.3h0.8v3.3h3.7v-3.3h0.8v7.3H88.3z"/>
	<path id="XMLID_16_" class="st0" d="M92.9,135.6l0.8-4.1h1.5l-1.2,4.1H92.9z"/>
	<path id="XMLID_18_" class="st0" d="M111.3,121.5v11.9h-1.4v-10.3l-3.1,2l-0.6-1l3.8-2.5H111.3z"/>
	<path id="XMLID_21_" class="st0" d="M120.8,133.4v-2.3h-5.8V130l3.4-8.5h1.5l-3.4,8.3h4.3v-3.7h1.4v3.7h1.5v1.2h-1.5v2.3H120.8z"/>
	<path id="XMLID_28_" class="st0" d="M128.5,120.9v-0.7h5.2v0.7h-2.2v6.5h-0.8v-6.5H128.5z"/>
	<path id="XMLID_30_" class="st0" d="M141.6,127.4v-3.3h-3.7v3.3h-0.8v-7.3h0.8v3.3h3.7v-3.3h0.8v7.3H141.6z"/>
	<path id="XMLID_35_" class="st0" d="M156.2,122c-1.8,0-2.7,0.7-2.7,2c0,0.8,0.2,1.3,0.6,1.6s1.3,0.6,2.5,0.8
		c1.3,0.3,2.2,0.6,2.7,1.1c0.5,0.4,0.8,1.2,0.8,2.2c0,2.6-1.3,3.8-4,3.8c-0.9,0-2-0.1-3.3-0.3l-0.6-0.1l0.1-1.2
		c1.6,0.2,2.9,0.3,3.7,0.3c1.8,0,2.7-0.8,2.7-2.5c0-0.7-0.2-1.2-0.6-1.4s-1.1-0.5-2.2-0.7c-1.4-0.3-2.4-0.7-3-1.2s-0.9-1.3-0.9-2.4
		c0-2.2,1.3-3.3,4-3.3c0.9,0,1.9,0.1,3.2,0.3l0.6,0.1l-0.1,1.2C158.1,122.1,156.9,122,156.2,122z"/>
	<path id="XMLID_40_" class="st0" d="M166.5,133.4v-12.5h7.6v1.2h-6.2v4.3h5.1v1.2h-5.1v4.5h6.2v1.2H166.5z"/>
	<path id="XMLID_42_" class="st0" d="M184.9,129.2h-3.2v4.2h-1.4v-12.5h4.6c1.4,0,2.4,0.3,3,1c0.6,0.7,1,1.7,1,3
		C188.9,127.8,187.6,129.2,184.9,129.2z M181.8,128h3.2c1.7,0,2.6-1,2.6-3c0-1-0.2-1.7-0.6-2.1c-0.4-0.5-1.1-0.7-2-0.7h-3.2V128z"/>
	<path id="XMLID_49_" class="st0" d="M193.7,122.2v-1.2h9v1.2h-3.8v11.2h-1.4v-11.2H193.7z"/>
	<path id="XMLID_55_" class="st0" d="M208.4,133.4v-12.5h7.6v1.2h-6.2v4.3h5.1v1.2h-5.1v4.5h6.2v1.2H208.4z"/>
	<path id="XMLID_57_" class="st0" d="M222.3,133.4v-12.5h2.5l3.5,10.5l3.5-10.5h2.5v12.5H233v-11h-0.3l-3.6,10.5h-1.5l-3.6-10.5
		h-0.3v11H222.3z"/>
	<path id="XMLID_63_" class="st0" d="M241.4,120.9h4.5c1.2,0,2.2,0.3,2.8,0.8c0.6,0.5,0.9,1.3,0.9,2.4c0,0.8-0.1,1.4-0.4,1.8
		c-0.3,0.4-0.7,0.8-1.2,1c1.3,0.5,2,1.4,2,2.9c0,1.2-0.3,2.1-1,2.7c-0.7,0.5-1.6,0.8-2.9,0.8h-4.8V120.9z M245.9,122.2h-3.1v4.3h3.2
		c0.8,0,1.3-0.2,1.7-0.5c0.4-0.4,0.5-0.9,0.5-1.7c0-0.7-0.2-1.3-0.6-1.6S246.7,122.2,245.9,122.2z M246,127.7h-3.2v4.5h3.3
		c0.8,0,1.4-0.2,1.9-0.5c0.4-0.3,0.6-0.9,0.6-1.8c0-0.5-0.1-0.8-0.3-1.2c-0.2-0.3-0.4-0.5-0.7-0.7
		C247.1,127.8,246.6,127.7,246,127.7z"/>
	<path id="XMLID_82_" class="st0" d="M256.5,133.4v-12.5h7.6v1.2h-6.2v4.3h5.1v1.2h-5.1v4.5h6.2v1.2H256.5z"/>
	<path id="XMLID_99_" class="st0" d="M271.8,128.6v4.8h-1.4v-12.5h4.6c1.3,0,2.3,0.3,3,0.9s1,1.6,1,2.9c0,1.9-0.8,3.1-2.3,3.6
		l2.4,5.1h-1.5l-2.2-4.8H271.8z M275,127.4c1.7,0,2.5-0.9,2.5-2.6s-0.9-2.6-2.6-2.6h-3.2v5.2H275z"/>
	<path id="XMLID_108_" class="st0" d="M284.5,135.6l0.8-4.1h1.5l-1.2,4.1H284.5z"/>
	<path id="XMLID_110_" class="st0" d="M304.7,133.4h-7.6v-1.2l3.5-3.7c0.6-0.6,1-1.1,1.3-1.4c0.3-0.3,0.5-0.7,0.7-1.2
		c0.2-0.4,0.3-0.9,0.3-1.3c0-0.8-0.2-1.3-0.6-1.6c-0.4-0.3-1.1-0.5-2-0.5c-0.8,0-1.6,0.1-2.6,0.3l-0.5,0.1l-0.1-1.2
		c1.1-0.3,2.3-0.5,3.5-0.5c1.2,0,2.1,0.3,2.7,0.8c0.6,0.5,0.9,1.3,0.9,2.4c0,0.8-0.2,1.6-0.6,2.2s-1,1.4-1.9,2.2l-3.2,3.2h6V133.4z"
		/>
	<path id="XMLID_112_" class="st0" d="M314.9,121.3c1,0,1.8,0.2,2.4,0.6c1.3,0.8,1.9,2.7,1.9,5.8c0,2.2-0.4,3.7-1.1,4.6
		c-0.7,0.9-1.8,1.3-3.2,1.3s-2.5-0.4-3.2-1.3c-0.7-0.9-1.1-2.5-1.1-4.7c0-2.3,0.4-3.9,1.1-4.8C312.4,121.8,313.5,121.3,314.9,121.3z
		 M314.9,122.6c-0.7,0-1.2,0.1-1.6,0.4c-0.9,0.6-1.3,2.1-1.3,4.7c0,1.8,0.2,3,0.7,3.7c0.5,0.7,1.2,1,2.2,1s1.7-0.3,2.2-1
		c0.5-0.7,0.7-2,0.7-3.8c0-1.9-0.2-3.1-0.7-3.9C316.7,122.9,316,122.6,314.9,122.6z"/>
	<path id="XMLID_115_" class="st0" d="M330.9,121.5v11.9h-1.4v-10.3l-3.1,2l-0.6-1l3.8-2.5H330.9z"/>
	<path id="XMLID_117_" class="st0" d="M342.4,132.3c2.2,0,3.3-1.4,3.3-4.1c-1.2,0.5-2.2,0.7-3.1,0.7c-2.6,0-3.9-1.2-3.9-3.6
		c0-1.2,0.4-2.2,1.1-2.9s1.7-1.1,3-1.1c1.5,0,2.5,0.5,3.2,1.6c0.7,1.1,1.1,2.7,1.1,4.7s-0.4,3.6-1.2,4.5s-2,1.4-3.5,1.4
		c-0.9,0-1.8-0.1-2.8-0.3l-0.5-0.1l0.1-1.1C340.4,132.3,341.4,132.3,342.4,132.3z M342.7,127.7c0.7,0,1.6-0.2,2.5-0.5l0.5-0.2
		c0-3-1-4.5-2.9-4.5c-0.8,0-1.5,0.2-2,0.7c-0.5,0.5-0.7,1.1-0.7,2C340.1,126.9,341,127.7,342.7,127.7z"/>
</g>
</svg>
