<?xml version="1.0" encoding="utf-8"?>
<!-- Generator: Adobe Illustrator 19.0.0, SVG Export Plug-In . SVG Version: 6.00 Build 0)  -->
<svg version="1.1" id="Layer_1" xmlns="http://www.w3.org/2000/svg" xmlns:xlink="http://www.w3.org/1999/xlink" x="0px" y="0px"
	 viewBox="0 0 207 84.9" style="enable-background:new 0 0 207 84.9;" xml:space="preserve">
<g id="XMLID_1_">
	<path id="XMLID_78_" d="M58.9,49.9c-1,0-1.9,0-2.9,0c0.4-5,0.8-9.9,1.2-15c0.9,0,1.8,0,2.6,0c0.1,0,0.3,0.3,0.4,0.4
		c1.1,2.5,2.1,5,3.2,7.5c0.1,0.1,0.1,0.3,0.2,0.5c0.4-1,0.8-1.9,1.2-2.8c0.7-1.7,1.5-3.5,2.2-5.2c0.1-0.4,0.3-0.5,0.7-0.5
		c0.8,0,1.5,0,2.3,0c0.4,5,0.8,9.9,1.2,14.9c-1,0-1.9,0-2.9,0c-0.2-2.9-0.5-5.7-0.7-8.6c0,0-0.1,0-0.1,0c-0.4,0.9-0.8,1.7-1.1,2.6
		c-0.5,1.1-0.9,2.2-1.5,3.2c-0.1,0.2-0.4,0.4-0.6,0.4c-2,0.1-2,0.1-2.7-1.7c-0.7-1.5-1.3-3-2.1-4.5C59.3,44.1,59.1,47,58.9,49.9z"/>
	<path id="XMLID_75_" d="M149.5,47c0.5,0.6,1.1,1.1,1.6,1.7c-0.6,0.6-1.2,1.2-1.8,1.9c-0.5-0.6-1.1-1.2-1.6-1.7
		c-2.1,1.4-4.3,1.7-6.6,1.1c-1.8-0.5-3.2-1.5-4.2-3c-2.2-3.2-1.8-7.6,1.1-10.3c2.7-2.5,7.1-2.6,10-0.3C150.9,38.7,152,43.2,149.5,47
		z M147.2,44.9c1.3-1.8,0.8-4.8-0.9-6.3c-1.8-1.5-4.5-1.5-6.2,0.1c-1.8,1.7-2.1,4.8-0.6,6.9c1.4,1.9,3.9,2.4,6,1.2
		c-0.6-0.5-1.1-1-1.7-1.4c0.7-0.7,1.2-1.3,1.9-2C146.3,43.8,146.7,44.4,147.2,44.9z"/>
	<path id="XMLID_71_" d="M106.8,48.9c-0.2-0.1-0.3-0.3-0.5-0.4c-1.1-1-1.1-1-0.5-2.3c0.1-0.2,0-0.6,0-0.8c0-0.1-0.1-0.1-0.1-0.2
		c-0.2-0.9-0.8-1.3-1.6-1.5c-0.2,0-0.3-0.3-0.4-0.5c-0.1-0.1,0-0.3,0-0.4c-0.1-1.2,0-1.3,1.1-1.7c0.4-0.1,0.7-0.3,0.8-0.8
		c0-0.1,0-0.2,0.1-0.3c0.5-0.7,0.4-1.3-0.1-1.9c-0.3-0.4-0.2-0.8,0.2-1.1c0.1,0,0.1-0.1,0.2-0.2c0.8-0.9,0.8-0.9,1.9-0.4
		c0.4,0.2,0.8,0.3,1.2,0c0,0,0.1,0,0.1-0.1c0.9-0.1,1.3-0.7,1.4-1.6c0.1-0.4,0.2-0.5,0.6-0.5c0.1,0,0.2,0,0.3,0
		c1.3-0.1,1.3-0.1,1.8,1.2c0.1,0.4,0.3,0.7,0.8,0.7c0.1,0,0.1,0,0.2,0.1c0.7,0.6,1.5,0.4,2.2-0.1c0.3-0.2,0.6-0.1,0.8,0.1
		c0.1,0.1,0.1,0.1,0.2,0.2c1,0.9,1,0.9,0.4,2.1c-0.2,0.4-0.2,0.7,0,1c0.1,0.1,0.1,0.2,0.1,0.3c0.1,0.8,0.7,1.2,1.4,1.3
		c0.5,0.1,0.7,0.3,0.6,0.8c0,0.1,0,0.1,0,0.2c0,1.3,0,1.4-1.2,1.8c-0.3,0.1-0.6,0.2-0.6,0.6c0,0.1,0,0.2-0.1,0.2
		c-0.5,0.7-0.4,1.5,0.1,2.2c0.2,0.3,0.2,0.6-0.1,0.8c-0.1,0.1-0.1,0.2-0.2,0.2c-0.9,1-0.9,1-2.1,0.4c-0.4-0.2-0.7-0.2-1.1,0
		c0,0-0.1,0-0.1,0c-0.9,0.1-1.3,0.8-1.5,1.6c-0.1,0.4-0.3,0.5-0.7,0.5c-0.1,0-0.2,0-0.4,0c-1.3,0.1-1.3,0.1-1.7-1.1
		c-0.1-0.4-0.4-0.6-0.7-0.8c-0.9-0.6-1.7-0.3-2.6,0.2C106.9,48.9,106.9,48.9,106.8,48.9z M111.7,46.3c2.1,0,3.9-1.7,3.9-3.8
		c0-2.1-1.7-3.9-3.8-3.9c-2.1,0-3.9,1.8-3.9,3.9C107.9,44.6,109.6,46.3,111.7,46.3z"/>
	<path id="XMLID_68_" d="M88,37.5c-0.2,0.4-0.3,0.8-0.5,1.1c-0.2,0.3-0.2,0.6,0,0.9c0,0,0,0,0,0.1c0.2,1,0.8,1.6,1.8,1.7
		c0.1,0,0.3,0.2,0.3,0.4c0,0.5,0,1.1,0,1.6c0,0.2-0.3,0.4-0.4,0.4c-1.3,0.1-1.5,1.2-1.9,2c-0.1,0.2,0.1,0.6,0.3,0.8
		c0.5,1.1,0.6,0.7-0.3,1.6c-0.2,0.2-0.4,0.3-0.5,0.5c-0.2,0.2-0.4,0.3-0.7,0.1c-0.1,0-0.2-0.1-0.2-0.1c-0.9-0.8-1.8-0.1-2.6,0.2
		c-0.3,0.1-0.4,0.7-0.5,1c-0.1,0.5-0.4,0.7-0.9,0.7c-0.1,0-0.2,0-0.4,0c-1.1,0-1.1,0-1.5-1.1c-0.2-0.5-0.5-0.7-0.9-0.9
		c-0.8-0.4-1.5-0.4-2.2,0.1c-0.3,0.2-0.6,0.2-0.8-0.1c-0.1-0.1-0.2-0.2-0.3-0.3c-0.9-0.8-0.9-0.9-0.3-1.9c0.2-0.4,0.3-0.8,0-1.2
		c0-0.1-0.1-0.1-0.1-0.2c-0.1-0.8-0.7-1.1-1.4-1.2c-0.5-0.1-0.8-0.4-0.7-0.9c0,0,0-0.1,0-0.1c-0.1-1.3-0.1-1.3,1.2-1.7
		c0.4-0.1,0.7-0.3,0.7-0.7c0-0.1,0-0.2,0.1-0.2c0.5-0.7,0.4-1.4-0.1-2.1c-0.2-0.3-0.2-0.6,0.1-0.9c0.1-0.1,0.2-0.2,0.3-0.3
		c0.9-0.9,0.9-0.9,2-0.3c0.4,0.2,0.7,0.3,1,0c0.1-0.1,0.2-0.1,0.3-0.1c0.9-0.1,1.2-0.7,1.4-1.5c0.1-0.4,0.3-0.6,0.7-0.5
		c0.1,0,0.3,0,0.4,0c1.2,0,1.3,0,1.6,1.1c0.1,0.4,0.3,0.7,0.7,0.8c0.1,0,0.2,0.1,0.3,0.1c0.7,0.5,1.4,0.4,2-0.1
		c0.4-0.3,0.7-0.2,0.9,0.1c0.3,0.3,0.6,0.6,0.9,1C87.9,37.4,87.9,37.5,88,37.5z M81.5,46.3c2.1,0,3.9-1.7,3.9-3.8
		c0-2.1-1.7-3.8-3.8-3.9c-2.1,0-3.9,1.7-3.9,3.8C77.6,44.5,79.3,46.3,81.5,46.3z"/>
	<path id="XMLID_65_" d="M122.6,35.1c2.2,0,4.5-0.1,6.6,0c2,0.2,3.4,1.8,3.5,3.8c0.2,2-0.4,3.6-2.2,4.7c1.1,2.1,2.3,4.2,3.5,6.4
		c-1.1,0-2.1,0-3.1,0c-0.2,0-0.4-0.2-0.4-0.4c-0.8-1.5-1.6-3.1-2.4-4.6c-0.2-0.4-0.4-0.6-0.9-0.6c-0.5,0-1.1,0-1.6,0
		c0,1.9,0,3.7,0,5.5c-1,0-1.9,0-2.9,0C122.6,45,122.6,40,122.6,35.1z M125.5,41.7c0.8,0,1.6,0,2.4,0c0.2,0,0.4,0,0.6-0.1
		c0.9-0.2,1.3-0.9,1.3-1.9c0-1-0.4-1.8-1.3-1.9c-1-0.1-2,0-3.1,0C125.5,39,125.5,40.3,125.5,41.7z"/>
	<path id="XMLID_64_" d="M90.4,35c4.2,0,8.3,0,12.5,0c0,0.8,0,1.7,0,2.6c-1.5,0-3.1,0-4.7,0c0,4.1,0,8.2,0,12.3c-1,0-1.9,0-2.9,0
		c0-4.1,0-8.1,0-12.3c-1.6,0-3.2,0-4.8,0C90.4,36.7,90.4,35.9,90.4,35z"/>
</g>
</svg>
